<svg width="200" height="200" viewBox="0 0 200 200" fill="none" xmlns="http://www.w3.org/2000/svg">
<path d="M150.478 74.8268L157.728 69.6216C157.728 69.6216 153.462 115.716 153.045 119.441C153.045 119.441 151.332 123.397 143.234 127.652C143.234 127.652 147.539 85.816 150.478 74.8268Z" fill="#8C513A"/>
<path d="M150.802 75.537C150.802 75.537 144.559 125.11 143.234 127.653C141.899 130.222 42.9028 150.079 39.4996 150.458C36.0452 150.838 41.0572 98.9486 41.0572 98.9486C41.0572 98.9486 128.02 73.3314 150.802 75.537Z" fill="#FDC880"/>
<path d="M40.1384 109.276C40.1384 109.276 114.185 98.3314 149.149 88.375L148.45 93.6758C148.45 93.6758 76.6544 110.887 39.6356 115.629L40.1384 109.276Z" fill="#DD8E68"/>
<path d="M38.9224 125.978C38.9224 125.978 124.727 109.271 147.038 104.11L146.221 109.932C146.221 109.932 54.71 128.991 38.5756 132.24L38.9224 125.978Z" fill="#FFEAB7"/>
<path d="M143.234 127.652C143.548 127.053 144.152 123.698 144.888 118.966C137.546 121.405 38.3112 141.458 38.3056 141.46C38.2696 146.887 38.5872 150.556 39.4996 150.458C42.9028 150.079 141.899 130.222 143.234 127.652Z" fill="#DD8E68"/>
<path d="M63.1432 99.5836C63.1432 99.5836 62.4588 100.306 62.4988 100.782C62.5352 101.261 63.1512 101.505 63.7164 101.292C64.284 101.075 65.1932 100.803 65.452 100.02C65.7032 99.2392 65.4648 98.9612 65.0988 98.9064C64.736 98.852 63.5772 99.002 63.1432 99.5836Z" fill="#9F674E"/>
<path d="M94.092 92.6372C94.092 92.6372 93.5148 93.2928 93.5492 93.7336C93.592 94.18 94.1228 94.4136 94.6104 94.2216C95.0908 94.0344 95.878 93.7948 96.0844 93.0772C96.2932 92.3612 96.0852 92.0984 95.7684 92.0436C95.4544 91.9876 94.456 92.1108 94.092 92.6372Z" fill="#9F674E"/>
<path d="M108.14 89.3356C108.14 89.3356 107.605 89.96 107.645 90.3892C107.682 90.8188 108.181 91.0448 108.627 90.8644C109.082 90.69 109.81 90.4608 109.996 89.7764C110.184 89.0872 109.992 88.8332 109.696 88.7776C109.399 88.7212 108.474 88.8308 108.14 89.3356Z" fill="#9F674E"/>
<path d="M84.2856 94.2997C84.2856 94.2997 83.3588 95.3253 83.4172 96.0201C83.4752 96.7153 84.3248 97.0729 85.0984 96.7741C85.876 96.4717 87.1276 96.0937 87.464 94.9685C87.7948 93.8545 87.4648 93.4433 86.9656 93.3589C86.46 93.2765 84.882 93.4773 84.2856 94.2997Z" fill="#9F674E"/>
<path d="M98.5824 94.5584C98.5824 94.5584 97.7224 95.5472 97.78 96.2188C97.8368 96.8904 98.6356 97.2352 99.3588 96.9444C100.08 96.6536 101.239 96.2856 101.549 95.204C101.853 94.1248 101.542 93.7296 101.075 93.6484C100.609 93.5688 99.1268 93.7604 98.5824 94.5584Z" fill="#9F674E"/>
<path d="M117.476 88.5891C117.476 88.5891 116.715 89.5139 116.774 90.1479C116.829 90.7863 117.55 91.1239 118.21 90.8583C118.859 90.5975 119.906 90.2607 120.174 89.2411C120.44 88.2195 120.154 87.8455 119.725 87.7623C119.299 87.6819 117.964 87.8443 117.476 88.5891Z" fill="#9F674E"/>
<path d="M73.254 99.1963C73.254 99.1963 72.4192 100.104 72.4652 100.71C72.514 101.317 73.274 101.62 73.974 101.352C74.6732 101.082 75.7908 100.737 76.1004 99.7515C76.4076 98.7727 76.1156 98.4139 75.6632 98.3479C75.2088 98.2795 73.7884 98.4719 73.254 99.1963Z" fill="#9F674E"/>
<path d="M126.841 89.2007C126.841 89.2007 126.221 89.9703 126.273 90.4963C126.323 91.0227 126.91 91.3015 127.432 91.0871C127.958 90.8647 128.808 90.5875 129.026 89.7407C129.232 88.8947 128.999 88.5827 128.651 88.5163C128.303 88.4487 127.225 88.5835 126.841 89.2007Z" fill="#9F674E"/>
<path d="M79.8296 128.526C79.8296 128.526 79.0392 129.29 79.022 129.798C78.9872 130.305 79.574 130.559 80.1664 130.334C80.7652 130.098 81.722 129.808 82.0812 128.983C82.4452 128.152 82.2412 127.856 81.8828 127.799C81.5248 127.744 80.344 127.911 79.8296 128.526Z" fill="#9F674E"/>
<path d="M91.146 123.622C91.146 123.622 90.4804 124.314 90.4576 124.784C90.4372 125.254 90.932 125.497 91.4416 125.294C91.9476 125.092 92.7616 124.84 93.0664 124.082C93.3696 123.329 93.1928 123.05 92.894 122.991C92.5872 122.93 91.574 123.064 91.146 123.622Z" fill="#9F674E"/>
<path d="M106.827 123.157C106.827 123.157 106.216 123.819 106.198 124.268C106.184 124.717 106.637 124.957 107.109 124.769C107.582 124.577 108.336 124.341 108.614 123.616C108.895 122.889 108.734 122.621 108.45 122.565C108.162 122.506 107.228 122.625 106.827 123.157Z" fill="#9F674E"/>
<path d="M67.6084 129.995C67.6084 129.995 66.5496 131.083 66.5104 131.819C66.4772 132.554 67.2752 132.927 68.0932 132.604C68.9076 132.283 70.2012 131.882 70.6888 130.698C71.172 129.519 70.9036 129.085 70.4112 128.994C69.9236 128.91 68.3164 129.122 67.6084 129.995Z" fill="#9F674E"/>
<path d="M97.7616 123.801C97.7616 123.801 96.772 124.845 96.7392 125.557C96.7016 126.263 97.4468 126.627 98.2088 126.313C98.9668 126.006 100.168 125.615 100.62 124.473C101.066 123.33 100.817 122.92 100.354 122.832C99.9024 122.751 98.4124 122.956 97.7616 123.801Z" fill="#9F674E"/>
<path d="M114.894 119.305C114.894 119.305 114.011 120.278 113.988 120.949C113.96 121.621 114.627 121.973 115.307 121.691C115.99 121.411 117.074 121.058 117.47 119.987C117.874 118.918 117.638 118.518 117.236 118.429C116.818 118.341 115.473 118.513 114.894 119.305Z" fill="#9F674E"/>
<path d="M53.5787 131.555C53.5787 131.555 52.6171 132.516 52.5803 133.159C52.5471 133.799 53.2663 134.118 54.0003 133.833C54.7339 133.542 55.9031 133.172 56.3511 132.132C56.7871 131.092 56.5423 130.716 56.1047 130.642C55.6615 130.576 54.2087 130.78 53.5787 131.555Z" fill="#9F674E"/>
<path d="M128.594 118.058C128.594 118.058 127.885 118.864 127.866 119.421C127.845 119.97 128.378 120.268 128.931 120.033C129.477 119.801 130.355 119.51 130.682 118.622C130.999 117.729 130.814 117.403 130.482 117.329C130.149 117.26 129.065 117.401 128.594 118.058Z" fill="#9F674E"/>
<path d="M135.07 101.919C135.07 101.919 135.516 101.307 135.485 100.894C135.454 100.48 135.04 100.269 134.658 100.443C134.277 100.625 133.656 100.851 133.486 101.529C133.32 102.206 133.493 102.452 133.741 102.499C133.993 102.549 134.778 102.417 135.07 101.919Z" fill="#9F674E"/>
<path d="M105.686 109.207C105.686 109.207 106.208 108.536 106.176 108.093C106.151 107.651 105.68 107.425 105.236 107.625C104.796 107.826 104.079 108.089 103.878 108.818C103.678 109.551 103.866 109.815 104.154 109.859C104.445 109.904 105.349 109.748 105.686 109.207Z" fill="#9F674E"/>
<path d="M84.158 112.142C84.158 112.142 84.7264 111.438 84.6924 110.978C84.6688 110.515 84.1556 110.29 83.6832 110.502C83.1996 110.714 82.4356 110.995 82.2176 111.755C81.9916 112.523 82.1888 112.792 82.5036 112.837C82.8172 112.882 83.7832 112.71 84.158 112.142Z" fill="#9F674E"/>
<path d="M112.804 105.868C112.804 105.868 113.559 104.882 113.514 104.22C113.467 103.562 112.78 103.23 112.146 103.52C111.503 103.809 110.461 104.191 110.174 105.274C109.883 106.369 110.161 106.759 110.58 106.829C111.008 106.898 112.319 106.673 112.804 105.868Z" fill="#9F674E"/>
<path d="M93.8348 111.781C93.8348 111.781 94.6632 110.745 94.6172 110.053C94.5708 109.365 93.8288 109.024 93.1344 109.335C92.4404 109.649 91.3028 110.053 90.9812 111.192C90.6656 112.331 90.9564 112.74 91.4172 112.806C91.8728 112.878 93.2992 112.627 93.8348 111.781Z" fill="#9F674E"/>
<path d="M76.2171 115.385C76.2171 115.385 77.1363 114.286 77.0931 113.563C77.0523 112.844 76.2355 112.49 75.4699 112.824C74.7035 113.158 73.4507 113.594 73.0915 114.791C72.7303 115.996 73.0539 116.419 73.5495 116.489C74.0531 116.554 75.6215 116.279 76.2171 115.385Z" fill="#9F674E"/>
<path d="M124.165 105.078C124.165 105.078 124.776 104.268 124.744 103.725C124.698 103.184 124.138 102.903 123.626 103.135C123.114 103.371 122.271 103.673 122.044 104.562C121.816 105.459 122.042 105.785 122.382 105.846C122.722 105.908 123.776 105.737 124.165 105.078Z" fill="#9F674E"/>
<path d="M57.0107 118.096C57.0107 118.096 57.8419 117.134 57.8031 116.507C57.7667 115.876 57.0367 115.567 56.3495 115.861C55.6603 116.15 54.5363 116.53 54.2059 117.58C53.8791 118.629 54.1635 118.995 54.6135 119.054C55.0647 119.115 56.4727 118.876 57.0107 118.096Z" fill="#9F674E"/>
<path fill-rule="evenodd" clip-rule="evenodd" d="M87.592 140.856C88.1664 140.728 88.7468 140.599 89.3304 140.467C115.596 134.964 142.542 128.985 143.234 127.653C142.476 129.114 115.068 135.141 87.592 140.856Z" fill="url(#paint0_radial_122_482)"/>
<path d="M143.234 127.653C143.246 127.629 143.259 127.603 143.271 127.573C144.67 124.231 150.802 75.537 150.802 75.537C150.802 75.537 153.428 74.5398 157.515 70.4546C157.519 70.4502 157.523 70.4454 157.528 70.4406C157.528 70.4406 157.528 70.4406 157.528 70.4398C157.533 70.4362 157.537 70.4314 157.541 70.4278L157.541 70.427C157.565 70.403 157.587 70.3798 157.608 70.355C157.609 70.353 157.61 70.3518 157.611 70.3514C157.612 70.3494 157.614 70.3474 157.616 70.3458C157.634 70.3258 157.65 70.3046 157.666 70.2842C157.142 75.9414 153.432 115.98 153.045 119.441C153.045 119.441 151.332 123.397 143.234 127.653Z" fill="#8A4B36"/>
<path d="M143.271 127.573C143.594 126.799 144.18 123.52 144.888 118.967C143.671 119.372 139.933 120.258 134.544 121.458C135.976 118.514 137.044 115.155 137.864 111.672C143.083 110.586 146.221 109.932 146.221 109.932L147.038 104.11C144.9 104.606 142.178 105.206 139.006 105.887C139.594 102.314 139.992 98.7791 140.32 95.5891C145.434 94.3991 148.45 93.6759 148.45 93.6759L149.149 88.3751C146.532 89.1207 143.699 89.8707 140.693 90.6219C140.548 86.2207 138.191 84.2739 134.772 83.3083C132.235 82.5927 129.114 82.4171 125.88 82.1811C125.875 82.1799 125.872 82.1803 125.868 82.1803C140.389 78.9103 150.711 76.3083 150.802 75.5371C150.802 75.5371 144.67 124.231 143.271 127.573Z" fill="#FBB570"/>
<path d="M140.32 95.589C140.424 94.585 140.52 93.6146 140.613 92.6882C140.688 91.945 140.714 91.2574 140.693 90.6218C143.699 89.8706 146.532 89.1206 149.149 88.375L148.45 93.6758C148.45 93.6758 145.434 94.399 140.32 95.589Z" fill="#D9835C"/>
<path d="M137.864 111.672C138.313 109.764 138.686 107.82 139.006 105.887C142.178 105.205 144.9 104.605 147.038 104.11L146.221 109.932C146.221 109.932 143.083 110.585 137.864 111.672Z" fill="#FED19A"/>
<path d="M89.3303 140.466C106.682 136.567 128.04 130.91 132.022 125.636C132.97 124.38 133.806 122.974 134.544 121.457C139.933 120.258 143.671 119.371 144.888 118.966C144.18 123.52 143.594 126.799 143.271 127.573C143.259 127.602 143.246 127.629 143.234 127.652C142.542 128.984 115.596 134.964 89.3303 140.466Z" fill="#D9835C"/>
<path d="M109.146 47.1654C109.146 47.1654 29.0992 100.924 41.8092 99.3462C43.6368 99.1198 48.432 98.2522 55.0492 96.973C57.5176 99.5094 58.2736 100.545 59.0944 97.115C59.2824 96.3314 61.8 97.4926 62.3432 95.5422C69.3996 94.1418 77.6552 92.4614 86.236 90.6766C87.386 91.197 88.6364 92.5642 89.2816 91.0278C89.8684 89.6302 92.5052 93.269 93.5928 89.1366C121.724 83.2134 150.665 76.7086 150.802 75.5366C151.056 73.3834 112.82 45.5666 109.146 47.1654Z" fill="#8C513A"/>
<path d="M108.324 86.0266C108.324 86.0266 108.704 85.9374 109.372 85.769C115.109 84.5254 120.633 83.3066 125.68 82.165C125.741 82.1706 125.804 82.1754 125.868 82.1802C120.493 83.3906 114.543 84.6918 108.324 86.0266Z" fill="#E9A363"/>
<path d="M125.68 82.1651C140.188 78.8827 150.72 76.2427 150.802 75.5371C150.711 76.3083 140.389 78.9103 125.868 82.1803C125.804 82.1755 125.741 82.1707 125.68 82.1651Z" fill="#E49458"/>
<path d="M109.372 85.7693C113.477 84.7313 128.414 80.7117 132.278 76.2057C133.442 74.8477 132.857 72.6465 131.294 70.0973C131.52 69.8417 131.678 69.5661 131.763 69.2681C131.813 69.0893 131.836 68.9017 131.832 68.7049C131.82 68.1393 131.782 63.1801 131.819 61.3405C134.353 63.0413 136.92 64.8157 139.42 66.6153C139.41 66.6089 139.404 66.6061 139.404 66.6061C141.735 68.2841 144.007 69.9829 146.136 71.6649C146.608 72.1117 147.007 72.5233 147.323 72.8985C147.323 72.8985 147.496 72.9453 147.803 73.0037C148.849 73.8569 149.853 74.7037 150.802 75.5369C150.758 75.9137 147.734 76.8429 142.716 78.1261C143.506 80.5293 141.965 80.7273 141.48 79.5857C141.323 79.2181 140.91 78.6833 140.262 78.7425C140.15 81.0249 138.238 81.3925 138.168 80.5721C138.097 79.7493 137.737 79.3593 137.291 79.4669C133.875 80.2885 129.949 81.1989 125.68 82.1649C120.633 83.3065 115.109 84.5253 109.372 85.7693ZM120.501 54.7701C119.685 54.5397 119.102 54.1185 118.688 53.5985C118.497 53.3573 118.354 53.0053 118.222 52.6073C119.406 53.3373 120.673 54.1261 122 54.9613C121.429 54.9601 120.933 54.8917 120.501 54.7701ZM112.878 51.1681C112.878 51.1681 113.12 50.3721 113.072 49.4805C113.41 49.6825 113.766 49.8961 114.14 50.1205C113.213 50.5929 112.878 51.1681 112.878 51.1681Z" fill="#7A4332"/>
<path d="M147.323 72.8986C147.007 72.5234 146.608 72.1118 146.136 71.665C146.702 72.1126 147.258 72.559 147.803 73.0038C147.496 72.9454 147.323 72.8986 147.323 72.8986Z" fill="#63362D"/>
<path fill-rule="evenodd" clip-rule="evenodd" d="M157.666 70.2843C159.232 68.3071 155.393 64.7079 149.886 60.9415C144.864 57.5063 138.456 53.9335 133.495 51.3267C144.001 56.8379 160.69 66.4799 157.666 70.2843Z" fill="url(#paint1_radial_122_482)"/>
<path d="M157.608 70.355C157.609 70.3538 157.611 70.3522 157.611 70.3514C157.61 70.3518 157.609 70.353 157.608 70.355Z" fill="#703C2F"/>
<path d="M150.802 75.537C150.802 75.537 153.428 74.5398 157.515 70.4546C162.106 65.8714 133.967 51.399 127.149 48.1126C120.153 44.741 113.754 42.9254 109.146 47.1658C109.146 47.1658 136.298 62.7874 150.802 75.537Z" fill="#663B30"/>
<path d="M157.515 70.4544C157.518 70.4496 157.523 70.4464 157.526 70.4428C157.527 70.4416 157.527 70.4416 157.528 70.4404C157.523 70.4452 157.519 70.45 157.515 70.4544Z" fill="#703C2F"/>
<path d="M157.528 70.4397C157.53 70.4389 157.532 70.4369 157.533 70.4361C157.534 70.4345 157.536 70.4325 157.538 70.4305C157.54 70.4297 157.54 70.4289 157.541 70.4277C157.537 70.4313 157.533 70.4361 157.528 70.4397ZM157.541 70.4269C157.543 70.4261 157.543 70.4249 157.545 70.4229C157.546 70.4209 157.548 70.4193 157.55 70.4173C157.553 70.4157 157.554 70.4137 157.556 70.4113C157.558 70.4093 157.561 70.4065 157.563 70.4033C157.565 70.4029 157.566 70.4009 157.568 70.3993C157.582 70.3841 157.595 70.3701 157.608 70.3549C157.587 70.3797 157.565 70.4029 157.541 70.4269Z" fill="#703C2F"/>
<path d="M150.802 75.5368C149.853 74.7036 148.849 73.8568 147.803 73.0036C147.804 73.0028 147.804 73.0028 147.805 73.0032C148.852 73.8568 149.854 74.7024 150.802 75.5368ZM146.136 71.6648C144.007 69.9828 141.735 68.284 139.404 66.606C139.404 66.606 139.41 66.6088 139.42 66.6152C141.742 68.2868 144.004 69.9784 146.125 71.6548C146.129 71.658 146.132 71.6616 146.136 71.6648Z" fill="#63362D"/>
<path d="M147.803 73.0036C147.258 72.5588 146.702 72.1124 146.136 71.6648C146.132 71.6616 146.129 71.658 146.125 71.6548C146.695 72.1056 147.257 72.556 147.805 73.0032C147.804 73.0028 147.804 73.0028 147.803 73.0036Z" fill="#522F2B"/>
<path fill-rule="evenodd" clip-rule="evenodd" d="M157.568 70.3994C157.602 70.3618 157.635 70.3226 157.666 70.2842C157.65 70.3046 157.633 70.3258 157.616 70.3458C157.614 70.3474 157.612 70.3494 157.611 70.3514C157.611 70.3522 157.609 70.3538 157.607 70.355C157.595 70.3702 157.581 70.3842 157.568 70.3994Z" fill="url(#paint2_radial_122_482)"/>
<path d="M150.802 75.5368C149.854 74.7024 148.852 73.8568 147.805 73.0032C147.257 72.556 146.695 72.1056 146.125 71.6548C144.004 69.9784 141.742 68.2868 139.42 66.6152C139.701 66.7864 143.556 69.1136 146.555 69.96C147.863 70.3292 149.008 70.4172 149.622 69.92C151.694 68.2356 146.464 58.364 133.936 51.5596C138.83 54.1436 145.01 57.6076 149.886 60.9412C155.392 64.7072 159.23 68.3076 157.666 70.284C157.636 70.3224 157.602 70.3616 157.568 70.3992C157.566 70.4008 157.565 70.4028 157.563 70.4032C157.561 70.4064 157.558 70.4092 157.556 70.4112C157.554 70.4136 157.553 70.4156 157.55 70.4172C157.548 70.4192 157.546 70.4208 157.545 70.4228C157.543 70.4248 157.543 70.426 157.541 70.4268C157.541 70.4268 157.541 70.4268 157.541 70.4276C157.54 70.4288 157.54 70.4296 157.538 70.4304C157.536 70.4324 157.534 70.4344 157.533 70.436C157.532 70.4368 157.53 70.4388 157.528 70.4396L157.528 70.4404C157.527 70.4416 157.527 70.4416 157.526 70.4428C157.523 70.4464 157.518 70.4496 157.515 70.4544C153.428 74.5396 150.802 75.5368 150.802 75.5368Z" fill="#55322C"/>
<path d="M110.396 39.2593C110.396 39.2593 103.615 41.8041 103.211 43.8897C102.808 45.9773 103.131 48.0457 101.422 48.9805C99.7115 49.9121 94.0523 49.8541 93.1115 52.2521C92.1663 54.6493 93.6587 55.9001 94.1239 56.2833C94.5871 56.6673 86.0971 56.3821 86.3519 63.0061C86.6063 69.6261 88.3819 71.2605 88.3819 71.2605C88.3819 71.2605 97.3095 74.5341 109.152 73.8457C120.998 73.1581 131.928 72.5657 131.832 68.7049C131.82 68.1113 131.777 62.6709 131.826 61.0881C131.88 59.5025 131.658 57.9265 130 57.2749C128.344 56.6221 126.73 54.1893 123.918 54.7533C121.102 55.3177 119.536 54.6649 118.688 53.5985C117.84 52.5313 117.939 49.2641 115.76 49.6121C113.579 49.9637 112.878 51.1681 112.878 51.1681C112.878 51.1681 114.062 47.2793 110.679 47.0685C110.679 47.0685 105.696 44.7181 110.396 39.2593Z" fill="#FEFEFE"/>
<path d="M90.2367 71.844C89.8215 71.7268 89.4719 71.6208 89.1915 71.5336C89.1995 71.5348 89.2063 71.5356 89.2143 71.5364C89.4923 71.6232 89.8363 71.7276 90.2431 71.8424C93.4559 72.7492 100.532 74.3472 109.152 73.8456C100.522 74.3492 93.4407 72.7484 90.2367 71.844Z" fill="#7D4836"/>
<path d="M90.2432 71.8423C89.8364 71.7275 89.4924 71.6231 89.2144 71.5363C109.419 74.7783 124.908 71.5139 128.419 67.2055C134.163 60.1643 129.387 57.1003 129.983 57.2683C129.988 57.2699 129.995 57.2731 130 57.2747C131.658 57.9263 131.88 59.5023 131.826 61.0879C131.777 62.6707 131.82 68.1111 131.832 68.7047C131.836 68.9015 131.813 69.0891 131.763 69.2679C131.678 69.5659 131.52 69.8415 131.294 70.0971C128.964 72.7275 119.401 73.2515 109.152 73.8455C100.532 74.3471 93.456 72.7491 90.2432 71.8423Z" fill="#D7DBDC"/>
<path d="M94.4104 51.3906C94.4104 51.3906 93.1216 53.3518 95.6172 55.2834C98.1164 57.2114 102.993 58.841 102.993 58.841C102.993 58.841 89.4224 56.5814 94.4104 51.3906Z" fill="#D7DBDC"/>
<path d="M110.194 47.3896C110.194 47.3896 112.221 48.3884 110.972 51.4088C109.722 54.4268 106.271 58.4836 106.271 58.4836C106.271 58.4836 116.932 49.1656 110.194 47.3896Z" fill="#D7DBDC"/>
<path d="M120.078 55.6821C120.078 55.6821 120.954 57.9037 118.143 59.2005C115.332 60.4941 110.25 60.9321 110.25 60.9321C110.25 60.9321 123.943 61.9341 120.078 55.6821Z" fill="#D7DBDC"/>
<path d="M87.7268 63.0337C87.7268 63.0337 87.6212 67.3805 93.3512 68.9509C99.0796 70.5209 108.967 70.1109 108.967 70.1109C108.967 70.1109 85.2388 74.4929 87.7268 63.0337Z" fill="#D7DBDC"/>
<path d="M125.956 59.6983C125.987 60.9271 125.073 61.9471 123.912 61.9775C122.756 62.0047 121.789 61.0331 121.76 59.8047C121.732 58.5731 122.647 57.5571 123.805 57.5259C124.962 57.4995 125.927 58.4703 125.956 59.6983Z" fill="#EAD4C9"/>
<path d="M127.69 67.1826C127.716 68.1414 126.882 68.939 125.832 68.9642C124.776 68.991 123.906 68.2346 123.882 67.2758C123.86 66.3182 124.693 65.5166 125.744 65.4918C126.796 65.4662 127.669 66.2214 127.69 67.1826Z" fill="#EAD4C9"/>
<path d="M119.535 69.3971C119.553 70.0011 118.862 70.5103 117.995 70.5319C117.133 70.5511 116.419 70.0799 116.403 69.4747C116.389 68.8703 117.076 68.3635 117.94 68.3415C118.809 68.3203 119.522 68.7903 119.535 69.3971Z" fill="#EAD4C9"/>
<path d="M113.655 65.6851C113.674 66.4431 112.741 67.0771 111.567 67.1075C110.395 67.1335 109.428 66.5471 109.412 65.7903C109.393 65.0347 110.326 64.4007 111.498 64.3707C112.673 64.3411 113.638 64.9327 113.655 65.6851Z" fill="#EAD4C9"/>
<path d="M105.422 68.3642C105.44 69.1178 104.503 69.753 103.331 69.7838C102.16 69.8126 101.193 69.2234 101.176 68.4706C101.156 67.7114 102.091 67.077 103.265 67.0514C104.435 67.021 105.4 67.607 105.422 68.3642Z" fill="#EAD4C9"/>
<path d="M94.9855 65.356C95.0019 66.0624 94.2099 66.6564 93.2135 66.6776C92.2179 66.6996 91.3959 66.1528 91.3775 65.4456C91.3627 64.7396 92.1539 64.1468 93.1527 64.1228C94.1439 64.0996 94.9687 64.648 94.9855 65.356Z" fill="#EAD4C9"/>
<path d="M101.175 57.439C101.2 58.5034 100.051 59.3946 98.604 59.4266C97.154 59.4662 95.9576 58.6334 95.932 57.5686C95.9056 56.5074 97.0588 55.6174 98.5084 55.581C99.9532 55.5478 101.151 56.377 101.175 57.439Z" fill="#EAD4C9"/>
<path d="M105.756 62.7067C105.778 63.4403 104.904 64.0551 103.81 64.0839C102.717 64.1091 101.814 63.5383 101.794 62.8035C101.779 62.0727 102.651 61.4603 103.746 61.4291C104.838 61.4027 105.74 61.9727 105.756 62.7067Z" fill="#EAD4C9"/>
<path d="M107.168 51.6658C107.185 52.401 106.317 53.0134 105.219 53.0426C104.126 53.071 103.225 52.4974 103.207 51.7654C103.188 51.031 104.059 50.4162 105.153 50.3906C106.249 50.363 107.152 50.9334 107.168 51.6658Z" fill="#EAD4C9"/>
<path d="M115.923 56.1491C115.947 57.1371 114.884 57.9671 113.551 57.9995C112.217 58.0315 111.115 57.2571 111.088 56.2703C111.066 55.2823 112.124 54.4547 113.461 54.4203C114.796 54.3895 115.898 55.1611 115.923 56.1491Z" fill="#EAD4C9"/>
<path d="M123.972 56.4199C123.972 56.4199 122.342 56.9507 121.916 57.9347C121.493 58.9179 121.532 60.5379 121.532 60.5379C121.532 60.5379 122.915 61.9671 123.66 61.7859C124.399 61.6039 125.332 59.4751 125.332 59.4751L123.972 56.4199Z" fill="#4B2D2A"/>
<path d="M110.228 61.7515C110.228 61.7515 109.465 63.4027 109.836 64.4155C110.204 65.4287 111.319 66.5139 111.319 66.5139C111.319 66.5139 113.218 66.4091 113.606 65.6999C113.992 64.9919 113.203 62.7871 113.203 62.7871L110.228 61.7515Z" fill="#4B2D2A"/>
<path d="M91.9712 65.2291C91.9712 65.2291 92.684 66.1251 93.3324 66.1387C93.9716 66.1567 94.8372 65.7075 94.8372 65.7075C94.8372 65.7075 95.2424 64.4635 94.9476 64.0379C94.6544 63.6215 93.2584 63.5811 93.2584 63.5811L91.9712 65.2291Z" fill="#4B2D2A"/>
<path d="M103.256 51.7075C103.256 51.7075 103.974 52.5999 104.617 52.6155C105.258 52.6279 106.123 52.1835 106.123 52.1835C106.123 52.1835 106.528 50.9407 106.233 50.5195C105.939 50.0939 104.542 50.0591 104.542 50.0591L103.256 51.7075Z" fill="#4B2D2A"/>
<path d="M116.096 69.2738C116.096 69.2738 116.811 70.1694 117.456 70.1842C118.099 70.1962 118.961 69.7518 118.961 69.7518C118.961 69.7518 119.365 68.5102 119.072 68.0846C118.78 67.6642 117.385 67.6274 117.385 67.6274L116.096 69.2738Z" fill="#4B2D2A"/>
<path d="M110.413 56.2599C110.413 56.2599 111.646 57.5431 112.648 57.4643C113.646 57.3847 114.928 56.5555 114.928 56.5555C114.928 56.5555 115.387 54.5543 114.877 53.9395C114.366 53.3291 112.187 53.4851 112.187 53.4851L110.413 56.2599Z" fill="#76493D"/>
<path d="M96.4756 58.4843C96.4756 58.4843 98.0796 59.1103 98.9632 58.5955C99.844 58.0759 100.698 56.7543 100.698 56.7543C100.698 56.7543 100.363 54.7187 99.6656 54.3851C98.9648 54.0507 97.0464 55.1607 97.0464 55.1607L96.4756 58.4843Z" fill="#76493D"/>
<path d="M123.456 66.1023C123.456 66.1023 123.778 67.5275 124.476 67.9331C125.178 68.3419 126.364 68.3823 126.364 68.3823C126.364 68.3823 127.463 67.2619 127.36 66.6143C127.26 65.9715 125.739 65.0767 125.739 65.0767L123.456 66.1023Z" fill="#76493D"/>
<path d="M100.694 68.3384C100.694 68.3384 101.66 69.366 102.447 69.3172C103.244 69.2656 104.269 68.6208 104.269 68.6208C104.269 68.6208 104.66 67.0412 104.258 66.5496C103.862 66.0576 102.139 66.1584 102.139 66.1584L100.694 68.3384Z" fill="#76493D"/>
<path d="M101.172 61.6032C101.172 61.6032 101.631 62.9816 102.367 63.3068C103.104 63.6304 104.289 63.5316 104.289 63.5316C104.289 63.5316 105.271 62.2892 105.106 61.6588C104.94 61.028 103.343 60.3164 103.343 60.3164L101.172 61.6032Z" fill="#76493D"/>
<defs>
<radialGradient id="paint0_radial_122_482" cx="0" cy="0" r="1" gradientUnits="userSpaceOnUse" gradientTransform="translate(111.171 -78.4288) rotate(15.7635) scale(425.046 283.363)">
<stop stop-color="#413E3D"/>
<stop offset="1" stop-color="#332F30"/>
</radialGradient>
<radialGradient id="paint1_radial_122_482" cx="0" cy="0" r="1" gradientUnits="userSpaceOnUse" gradientTransform="translate(114.371 -77.4) rotate(15.7635) scale(400.563 283.363)">
<stop stop-color="#393839"/>
<stop offset="1" stop-color="#2F2C2E"/>
</radialGradient>
<radialGradient id="paint2_radial_122_482" cx="0" cy="0" r="1" gradientUnits="userSpaceOnUse" gradientTransform="translate(111.518 -78.9005) rotate(15.7638) scale(425.039 283.364)">
<stop stop-color="#323031"/>
<stop offset="1" stop-color="#2A282A"/>
</radialGradient>
</defs>
</svg>
