<svg width="60" height="57" viewBox="0 0 60 57" fill="none" xmlns="http://www.w3.org/2000/svg">
<path d="M50.7399 8.20791C45.1548 2.91248 37.7266 0 29.8134 0C13.5132 0 0.246238 12.5537 0.246238 27.9881C0.246238 32.9199 1.61174 37.7423 4.19723 41.9786L0 56.4845L15.6809 52.5906C20.0049 54.8182 24.87 56.0009 29.8097 56.0009H29.8209C46.1211 56.0009 59.3992 43.4472 59.3992 28.0128C59.3992 20.5321 56.3213 13.5069 50.7362 8.21144L50.7399 8.20791ZM29.8209 51.2774C25.4035 51.2774 21.0757 50.1512 17.3001 48.033L16.4009 47.5247L7.09612 49.8299L9.58088 41.2478L8.99887 40.3653C6.5253 36.669 5.23442 32.3903 5.23442 27.9881C5.23442 15.159 16.2629 4.71999 29.8358 4.71999C36.3984 4.71999 42.5805 7.14882 47.2179 11.537C51.8591 15.9392 54.4111 21.7748 54.4111 27.9951C54.3999 40.8348 43.3714 51.2774 29.8209 51.2774ZM43.3005 33.8484C42.5655 33.4953 38.9279 31.8079 38.2526 31.5749C37.5774 31.3419 37.0849 31.2218 36.5849 31.9279C36.0962 32.6233 34.6747 34.2014 34.242 34.6744C33.8092 35.1369 33.3801 35.204 32.6451 34.851C31.9102 34.4979 29.5187 33.7601 26.6981 31.3772C24.5044 29.5238 23.0158 27.2291 22.583 26.5336C22.1502 25.8381 22.5345 25.4533 22.9113 25.1109C23.2508 24.8002 23.6463 24.2954 24.0194 23.8859C24.3925 23.4764 24.5081 23.1904 24.7543 22.7174C25.0006 22.2549 24.8812 21.8454 24.6947 21.4924C24.5081 21.1393 23.027 17.6973 22.4226 16.2958C21.8293 14.926 21.21 15.1167 20.7549 15.092C20.3221 15.0708 19.8333 15.0708 19.3446 15.0708C18.8558 15.0708 18.05 15.2473 17.3747 15.9428C16.6994 16.6382 14.7855 18.3363 14.7855 21.7783C14.7855 25.2203 17.4306 28.5423 17.8037 29.0154C18.1768 29.4779 23.0158 36.549 30.429 39.5745C32.19 40.2911 33.5667 40.7218 34.6374 41.0537C36.4096 41.5832 38.0176 41.5055 39.2898 41.329C40.7113 41.1313 43.6624 39.6415 44.2817 38.007C44.9011 36.3725 44.9011 34.9745 44.7145 34.685C44.5392 34.3744 44.0504 34.2014 43.3043 33.8448L43.3005 33.8484Z" fill="white"/>
</svg>
