<svg width="60" height="57" viewBox="0 0 60 57" fill="none" xmlns="http://www.w3.org/2000/svg">
<path d="M53.8306 0.731934H5.56868C2.50591 0.731934 0 3.10311 0 6.00121V51.6683C0 54.5664 2.50591 56.9376 5.56868 56.9376H53.8306C56.8933 56.9376 59.3992 54.5664 59.3992 51.6683V6.00121C59.3992 3.10311 56.8933 0.731934 53.8306 0.731934ZM40.837 9.51406C40.837 8.54803 41.6723 7.75764 42.6932 7.75764H50.1181C51.139 7.75764 51.9743 8.54803 51.9743 9.51406V16.5398C51.9743 17.5058 51.139 18.2962 50.1181 18.2962H42.6932C41.6723 18.2962 40.837 17.5058 40.837 16.5398V9.51406ZM29.6996 18.2962C35.8474 18.2962 40.837 23.0175 40.837 28.8347C40.837 34.652 35.8474 39.3733 29.6996 39.3733C23.5518 39.3733 18.5623 34.652 18.5623 28.8347C18.5623 23.0175 23.5518 18.2962 29.6996 18.2962ZM51.9743 48.1554C51.9743 49.1215 51.139 49.9119 50.1181 49.9119H9.28113C8.26021 49.9119 7.4249 49.1215 7.4249 48.1554V25.3219H11.5086C11.2636 26.453 11.1374 27.6263 11.1374 28.8347C11.1374 38.5372 19.4421 46.399 29.6996 46.399C39.9571 46.399 48.2619 38.5372 48.2619 28.8347C48.2619 27.6263 48.1357 26.453 47.8906 25.3219H51.9743V48.1554Z" fill="white"/>
</svg>
