<svg width="200" height="200" viewBox="0 0 200 200" fill="none" xmlns="http://www.w3.org/2000/svg">
<path fill-rule="evenodd" clip-rule="evenodd" d="M40.5988 76.9854L167.519 77.1506L155.92 141.326C154.94 146.75 156.24 147.429 151.278 148.865C119.41 158.088 87.5412 158.725 55.6732 148.911C51.1716 147.525 51.9372 148.352 51.2092 143.768L48.9308 129.43L40.5988 76.9854Z" fill="#F9A956"/>
<path fill-rule="evenodd" clip-rule="evenodd" d="M37.3735 77.8464L53.1827 77.002C53.2831 100.647 47.6627 136.75 61.4579 144.928C106.706 154.512 114.116 135.319 140.683 144.464C153.062 131.805 149.802 98.8568 158.656 77.1392L169.242 80.4187L155.92 141.326C154.94 146.75 156.24 147.429 151.278 148.865C119.41 158.088 87.5411 158.726 55.6731 148.912C51.1715 147.526 51.9371 148.352 51.2091 143.768L48.9307 129.43L37.3735 77.8464Z" fill="#F89B4D"/>
<path fill-rule="evenodd" clip-rule="evenodd" d="M64.7656 89.3761C60.9776 105.139 61.1292 120.739 66.7596 135.871C67.9796 139.149 68.2468 140.088 70.848 143.153C72.6964 145.331 74.284 148.883 78.3068 148.883C73.9064 145.127 75.6012 145.246 74.2828 139.692C73.368 135.839 68.1724 126.655 68.226 124.294C68.3392 119.313 64.2716 116.987 65.7924 110.581C67.2344 104.506 65.3584 106.746 68.0752 99.5281C71.292 90.9833 69.6648 90.1933 71.7636 101.871C74.3032 115.999 77.1352 129.416 80.0608 143.389C81.5608 150.554 96.0076 153.821 89.7416 150.865C86.134 149.164 83.3344 143.624 84.7636 143.673C84.4952 134.325 86.3928 135.311 81.724 126.271C76.252 115.675 77.7268 109.067 77.4168 97.3741C77.346 94.7153 73.8172 89.4513 69.554 89.4513C68.0788 89.4513 64.8708 88.9381 64.7656 89.3761Z" fill="#F89B4D"/>
<path fill-rule="evenodd" clip-rule="evenodd" d="M144.466 88.6172C147.335 104.573 146.282 120.138 139.784 134.918C138.377 138.12 138.056 139.042 135.281 141.952C133.31 144.019 131.519 147.474 127.503 147.241C132.113 143.746 130.414 143.766 132.052 138.298C133.188 134.504 138.907 125.637 138.99 123.276C139.165 118.298 143.361 116.21 142.213 109.726C141.125 103.579 142.868 105.924 140.574 98.5604C137.856 89.844 139.527 89.1496 136.755 100.686C133.402 114.644 129.798 127.874 126.069 141.655C124.157 148.72 109.544 151.146 115.971 148.558C119.671 147.068 122.787 141.7 121.358 141.666C122.166 132.349 120.214 133.224 125.399 124.469C131.476 114.207 130.385 107.525 131.371 95.87C131.596 93.2196 135.424 88.1684 139.68 88.4152C141.153 88.5004 144.386 88.174 144.466 88.6172Z" fill="#F89B4D"/>
<path d="M166.004 90.7053C166.533 90.0505 171.203 83.9817 168.309 73.6705C165.411 63.3581 162.134 59.4853 147.423 51.6077C132.714 43.7297 124.409 40.9665 96.7504 42.1469C69.092 43.3245 56.2308 49.5773 45.4344 60.5577C34.6304 71.5365 35.2048 76.9609 41.9028 87.0149C48.6028 97.0677 71.974 109.507 94.4836 111.59C116.99 113.673 135.366 110.414 147.684 103.519C159.992 96.6201 160.316 97.7673 166.004 90.7053Z" fill="#F9A956"/>
<path d="M66.07 104.042C54.8028 99.1351 45.6892 92.6947 41.9028 87.0147C38.9144 82.5283 37.1448 78.9631 37.0612 75.4155C38.4892 76.9407 40.4712 78.4843 41.2364 80.0251C42.654 82.8759 42.1156 86.4199 48.8344 89.0243C49.3132 89.2099 49.8284 89.3907 50.3848 89.5655C58.7408 92.2019 67.8316 90.9891 70.9516 92.1463C71.0588 92.1863 71.1652 92.2263 71.2696 92.2667C73.3544 93.0751 74.9124 94.0383 76.0412 95.6695C75.6056 95.2499 74.9868 94.8987 74.2272 94.6043C71.1908 93.4271 65.9104 93.1703 61.1832 93.1891C55.912 93.2091 50.3716 91.1735 49.228 90.7299C49.088 90.6759 49.0144 90.6455 49.0144 90.6455C49.0144 90.6455 49.7716 96.4699 66.0312 104.024L66.07 104.042ZM83.5696 101.458C83.4612 101.416 83.3516 101.371 83.244 101.324C86.326 101.703 89.9416 101.107 92.5256 98.9075C97.6168 94.5787 98.6976 93.5627 106.072 95.6055C106.702 95.7795 107.289 95.9771 107.838 96.1899C109.586 96.8675 110.97 97.7075 112.223 98.4959C112.79 98.8527 113.331 99.1999 113.866 99.5155C103.568 96.9611 102.761 96.2407 99.2408 97.9347C95.7844 99.5923 89.0076 103.567 83.5696 101.458ZM38.8828 68.7639C39.616 67.4395 40.5824 66.0515 41.7992 64.5639C41.6268 65.9287 41.2004 66.7699 40.6024 67.4167C40.1252 67.9335 39.5376 68.3267 38.8828 68.7639ZM121.505 100.559C121.666 100.51 121.83 100.458 121.995 100.402C124.37 99.6011 125.608 98.6487 126.505 97.6771C127.203 96.9211 127.695 96.1543 128.357 95.4375C129.39 94.3171 130.838 93.3203 134.134 92.6871C142.246 91.1259 148.598 92.0803 152.6 88.7703C152.936 88.4919 153.231 88.2119 153.488 87.9315C154.566 86.7619 155.024 85.5787 155.296 84.4403C155.896 88.1295 152.926 92.7751 145.562 94.0687C138.195 95.3639 134.494 94.0955 131.414 96.7679C129.236 98.6539 126.532 100.521 121.505 100.559ZM50.822 55.6563C58.8348 49.2223 68.7432 45.0003 84.5544 43.1007C84.5428 43.1027 84.532 43.1043 84.5196 43.1063C77.71 44.1399 70.7004 45.7979 65.9672 49.6239C61.834 52.9623 56.0008 54.5535 50.822 55.6563ZM156.563 80.0647C156.673 79.9047 156.797 79.7483 156.936 79.5971C156.962 79.5687 156.99 79.5407 157.018 79.5123C157.629 78.8839 158.332 78.2607 159.001 77.5987C158.006 78.7199 157.187 79.4467 156.563 80.0647ZM85.5232 42.9883C88.976 42.5999 92.7036 42.3195 96.7504 42.1467C116.634 41.2987 126.515 42.4875 135.965 46.1503C139.66 47.5823 143.288 49.3931 147.423 51.6075C148.172 52.0087 148.892 52.3991 149.583 52.7815C153.193 54.7747 156.028 56.5227 158.311 58.2239C158.663 59.8503 158.728 61.6367 158.224 63.5007C158.224 63.5007 160.522 66.6475 161.038 70.0183C159.034 65.2479 158.855 65.3751 157.934 62.6787C157.112 60.2823 155.394 57.7591 149.14 55.3351C148.358 55.0323 147.504 54.7303 146.573 54.4311C146.573 54.4311 142.504 53.4163 135.869 50.8619C135.84 50.8507 135.81 50.8387 135.781 50.8275C133.488 49.9391 131.438 48.9135 129.505 47.9343C127.573 46.9547 125.76 46.0207 123.94 45.3155C122.346 44.6975 120.747 44.2551 119.06 44.1091C113.502 43.6283 110.375 45.5599 105.038 45.6919C99.9644 45.8167 92.1372 42.4271 85.5232 42.9883Z" fill="#F89B4D"/>
<path fill-rule="evenodd" clip-rule="evenodd" d="M137.113 108.055C137.118 108.053 137.124 108.051 137.128 108.05C137.123 108.052 137.119 108.053 137.113 108.055ZM137.182 108.033C137.202 108.027 137.22 108.02 137.24 108.013C137.221 108.02 137.201 108.027 137.182 108.033ZM137.253 108.01C141.094 106.761 144.58 105.255 147.684 103.519C144.582 105.256 141.094 106.762 137.253 108.01Z" fill="url(#paint0_radial_122_563)"/>
<path fill-rule="evenodd" clip-rule="evenodd" d="M102.301 112.101C102.306 112.087 99.0148 110.407 102.809 109.743C104.38 109.467 110.453 108.94 113.272 109.454C122.914 111.213 134.633 106.082 140.216 103.719C145.801 101.356 154.343 97.4373 157.828 95.0029C160.628 93.0441 168.249 87.5141 169.243 80.4185C169.172 86.6089 166.405 90.2085 166.004 90.7053C165.025 91.9193 164.206 92.8897 163.458 93.7021C159.85 97.6105 157.877 97.8061 147.684 103.518C144.58 105.255 141.094 106.761 137.253 108.009C137.248 108.011 137.245 108.012 137.24 108.013C137.219 108.02 137.202 108.027 137.182 108.033C137.163 108.039 137.147 108.044 137.128 108.05C137.124 108.051 137.118 108.053 137.113 108.055C127.539 111.142 115.776 112.629 102.301 112.101Z" fill="#78412F"/>
<path fill-rule="evenodd" clip-rule="evenodd" d="M102.3 112.101C102.296 112.089 107.106 111.772 105.03 110.573C103.429 109.647 95.54 107.77 91.7748 107.748C82.5244 109.507 71.282 104.376 65.9252 102.013C60.5668 99.6504 52.3716 95.7312 49.0272 93.2968C46.3408 91.338 39.0296 85.8076 38.0764 78.7124C38.1436 84.9028 40.7992 88.5028 41.1844 88.9992C42.1228 90.2132 42.9084 91.1836 43.626 91.996C47.0872 95.9044 48.9808 96.1 58.7604 101.812C61.7376 103.549 65.0828 105.054 68.7676 106.304C68.7716 106.305 68.7752 106.306 68.7796 106.307C68.8 106.314 68.8168 106.321 68.8364 106.327C68.8544 106.333 68.87 106.338 68.8876 106.344C68.892 106.345 68.8972 106.347 68.902 106.349C78.0872 109.436 89.3724 112.629 102.3 112.101Z" fill="#78412F"/>
<path d="M146.573 54.4312C146.573 54.4312 142.504 53.4164 135.869 50.862C133.541 49.9652 131.462 48.9264 129.505 47.9344C125.882 46.098 122.674 44.422 119.06 44.1092C113.502 43.6284 110.375 45.56 105.038 45.692C99.7052 45.8236 91.33 42.072 84.5196 43.1064C77.71 44.14 70.7004 45.798 65.9672 49.624C61.232 53.4488 54.2632 54.98 48.6044 56.1116C42.9508 57.2376 42.2912 60.7148 41.8 64.5588C41.3172 68.406 38.8172 68.0944 36.1268 71.0056C33.4372 73.9136 39.7216 76.9748 41.2364 80.0252C42.7552 83.0792 42.0284 86.9284 50.3848 89.5656C58.7408 92.202 67.8316 90.9892 70.9516 92.1464C74.0736 93.3056 76.0632 94.7408 77.2168 98.0496C78.362 101.357 87.4404 103.235 92.5256 98.9076C97.6168 94.5788 98.6976 93.5628 106.072 95.6056C108.7 96.334 110.576 97.4592 112.223 98.496C115.193 100.365 117.423 101.947 121.995 100.402C129.106 98.004 126.021 94.2464 134.134 92.6872C142.246 91.126 148.598 92.0804 152.6 88.7704C156.604 85.4564 154.678 81.9172 157.018 79.5124C159.357 77.1068 163.035 74.7892 161.038 70.0184C159.034 65.248 158.855 65.3752 157.934 62.6788C157.01 59.9824 154.949 57.126 146.573 54.4312Z" fill="#8C4E33"/>
<path d="M48.8344 89.0244C42.1156 86.42 42.654 82.8759 41.2364 80.0252C39.7216 76.9748 33.4372 73.9136 36.1268 71.0056C37.8612 69.1296 39.5156 68.5924 40.6024 67.4168C41.202 66.7684 41.6288 65.9263 41.8 64.5587C41.9612 63.3243 42.1368 62.1324 42.4876 61.0396C42.496 61.0448 46.6668 63.7604 44.36 66.6568C42.0488 69.5564 35.078 71.0912 40.0408 74.3048C44.9968 77.518 46.2864 79.9592 47.04 83.0316C47.3772 84.4128 49.3732 85.7788 52.0196 86.8044C55.2592 88.06 59.4728 88.8068 62.8116 88.452C66.7364 88.0336 71.9044 88.3624 75.5432 89.7728C77.5284 90.5424 79.0588 91.634 79.6836 93.102C80.7872 95.6932 82.46 97.8864 84.41 98.642C85.5892 99.0992 86.87 99.0307 88.188 98.2059C91.6888 96.0191 98.1424 92.276 101.994 92.9212C102.525 93.01 103.188 93.2231 103.946 93.5167C105.078 93.9555 106.422 94.574 107.863 95.2299C109.303 95.8856 110.84 96.5787 112.357 97.1667C115.676 98.4531 118.898 99.236 120.804 98.02C125.031 95.3188 127.989 90.4251 133.688 90.0355C139.388 89.6495 151.569 89.1012 151.671 84.4016C151.776 79.702 154.128 77.5412 156.299 75.51C158.468 73.4784 161.444 74.4724 159.22 65.882C159.617 66.746 160.144 67.8963 161.038 70.0183C162.357 73.1679 161.202 75.2488 159.591 76.99C158.762 77.8872 157.812 78.6948 157.018 79.5124C156.99 79.5408 156.962 79.5688 156.936 79.5972C154.91 81.7968 156.274 84.9096 153.488 87.9316C153.231 88.212 152.936 88.492 152.6 88.7704C148.598 92.0804 142.246 91.1259 134.134 92.6871C130.838 93.3203 129.39 94.3171 128.357 95.4375C127.695 96.1543 127.203 96.9211 126.505 97.6771C125.608 98.6487 124.37 99.6012 121.995 100.402C119.352 101.296 117.492 101.144 115.818 100.495C115.15 100.236 114.511 99.8983 113.866 99.5155C113.331 99.1999 112.79 98.8527 112.223 98.4959C110.97 97.7075 109.586 96.8675 107.838 96.1899C107.289 95.9771 106.702 95.7795 106.072 95.6055C98.6976 93.5627 97.6168 94.5787 92.5256 98.9075C89.9416 101.107 86.326 101.703 83.244 101.324C82.1788 101.193 81.178 100.945 80.3052 100.607C78.734 99.9979 77.5792 99.0951 77.2168 98.0495C76.1028 94.8535 74.2092 93.4063 71.2696 92.2667C71.1652 92.2263 71.0588 92.1863 70.9516 92.1463C67.8316 90.9891 58.7408 92.2019 50.3848 89.5655C49.8284 89.3907 49.3132 89.21 48.8344 89.0244Z" fill="#78412F"/>
<path d="M78.0883 56.8101C77.6239 57.0473 76.9415 56.9957 76.5743 56.6945L76.1475 56.3425C75.7815 56.0397 75.8587 55.5977 76.3299 55.3625L83.1807 51.8617C83.6443 51.6249 84.3291 51.6785 84.6943 51.9801L85.1247 52.3305C85.4859 52.6313 85.4059 53.0733 84.9435 53.3125L78.0883 56.8101Z" fill="#EE4277"/>
<path d="M76.8728 56.8632C77.2464 57.0036 77.732 56.9924 78.0884 56.81C77.7316 56.9924 77.2464 57.0036 76.8728 56.8632ZM84.6808 51.9688C84.6004 51.9056 84.506 51.854 84.4028 51.814C84.3908 51.8092 84.3796 51.8048 84.3672 51.8012C84.368 51.7996 84.3684 51.7988 84.3684 51.7988C84.38 51.8024 84.3912 51.8068 84.4024 51.8112C84.5048 51.8508 84.6008 51.906 84.6808 51.9688Z" fill="#853B30"/>
<path d="M76.864 56.8597C76.8628 56.8593 76.8624 56.8589 76.8608 56.8585C76.7648 56.8201 76.676 56.7725 76.6 56.7149C76.598 56.7129 76.5952 56.7109 76.5932 56.7093C76.5868 56.7041 76.58 56.6993 76.5744 56.6945L76.1476 56.3425C76.1256 56.3237 76.1044 56.3049 76.0856 56.2857C75.8364 56.0301 75.888 55.7025 76.1844 55.4705C76.1888 55.4817 76.2608 55.6553 76.5564 55.7697C77.028 55.9525 78.0652 55.9869 80.3 54.9865C83.9056 53.3769 84.3496 51.8681 84.3672 51.8013C84.3796 51.8049 84.3908 51.8093 84.4028 51.8141C84.506 51.8541 84.6004 51.9057 84.6808 51.9689C84.6852 51.9725 84.69 51.9765 84.6944 51.9801L85.1248 52.3305C85.4044 52.5625 85.42 52.8797 85.1984 53.1221C85.1336 53.1937 85.048 53.2589 84.9436 53.3125L78.0884 56.8101C77.732 56.9925 77.2464 57.0037 76.8728 56.8633C76.87 56.8621 76.8672 56.8609 76.864 56.8597Z" fill="#D73660"/>
<path d="M105.22 56.0702C104.67 56.2134 104.035 56.0446 103.812 55.6866L103.548 55.275C103.322 54.919 103.59 54.509 104.135 54.3618L112.204 52.2082C112.75 52.0614 113.385 52.2338 113.61 52.5894L113.874 53.0022C114.098 53.3574 113.84 53.7674 113.29 53.9134L105.22 56.0702Z" fill="#EE4277"/>
<path d="M113.51 52.4672C113.469 52.4276 113.423 52.3908 113.371 52.3584C113.422 52.3908 113.469 52.4268 113.51 52.4672Z" fill="#853B30"/>
<path d="M104.253 56.0204C104.252 56.02 104.25 56.0192 104.248 56.0184C104.069 55.948 103.92 55.844 103.828 55.712C103.822 55.704 103.817 55.6952 103.812 55.6864L103.548 55.2748C103.353 54.9628 103.538 54.6252 103.952 54.4428C103.952 54.4572 103.945 54.732 104.406 54.9104C104.903 55.1032 105.942 55.1832 108.117 54.7056C112.346 53.7748 113.366 52.3652 113.371 52.3584C113.423 52.3908 113.469 52.4276 113.51 52.4672C113.511 52.4688 113.512 52.47 113.514 52.4704C113.514 52.4704 113.513 52.4716 113.514 52.4716C113.551 52.508 113.583 52.5476 113.61 52.5892L113.874 53.002C114.006 53.2132 113.97 53.4432 113.802 53.626C113.688 53.7512 113.514 53.8536 113.29 53.9132L105.22 56.07C105.197 56.076 105.174 56.0812 105.15 56.086C104.847 56.1504 104.526 56.1236 104.267 56.0256C104.262 56.0236 104.258 56.022 104.253 56.0204Z" fill="#D73660"/>
<path d="M133.052 60.0117C132.695 59.7053 132.793 59.2637 133.274 59.0345L133.822 58.7681C134.299 58.5377 134.98 58.6005 135.332 58.9113L140.542 63.4493C140.896 63.7525 140.792 64.1949 140.322 64.4245L139.763 64.6893C139.289 64.9181 138.61 64.8557 138.256 64.5437L133.052 60.0117Z" fill="#EE4277"/>
<path d="M138.568 64.7275C138.464 64.6871 138.368 64.6339 138.288 64.5695C138.276 64.5615 138.267 64.5527 138.256 64.5435L133.052 60.0115C132.782 59.7791 132.773 59.4691 132.993 59.2327C133.063 59.1579 133.157 59.0895 133.274 59.0343L133.822 58.7679C133.852 58.7531 133.884 58.7395 133.916 58.7275C134.259 58.5963 134.672 58.6087 135.003 58.7367C135.06 58.7587 135.114 58.7847 135.167 58.8135C135.124 58.8199 133.386 59.0943 135.803 61.4959C137.123 62.8127 138.422 63.5015 139.334 63.8551C140.106 64.1543 140.604 64.2147 140.604 64.2147C140.536 64.2935 140.44 64.3651 140.322 64.4243L139.763 64.6891C139.756 64.6931 139.749 64.6963 139.742 64.6991C139.729 64.7055 139.716 64.7111 139.703 64.7163C139.357 64.8611 138.92 64.8611 138.577 64.7307C138.575 64.7299 138.572 64.7287 138.568 64.7275Z" fill="#D73660"/>
<path d="M130.311 82.5045C129.752 82.3793 129.446 81.9813 129.644 81.6157L129.868 81.1941C130.064 80.8309 130.678 80.6365 131.242 80.7625L139.494 82.6025C140.05 82.7265 140.355 83.1285 140.159 83.4905L139.931 83.9129C139.739 84.2765 139.121 84.4709 138.566 84.3461L130.311 82.5045Z" fill="#EE4277"/>
<path d="M140.218 83.2655C140.219 83.2491 140.218 83.2327 140.216 83.2163C140.216 83.2159 140.217 83.2163 140.217 83.2163C140.218 83.2327 140.219 83.2491 140.218 83.2655Z" fill="#853B30"/>
<path d="M130.109 82.4435C130.106 82.4423 130.102 82.4411 130.098 82.4391C129.694 82.2791 129.488 81.9579 129.625 81.6515C129.631 81.6395 129.637 81.6279 129.644 81.6159L129.868 81.1943C130.042 80.8783 130.522 80.7031 131.019 80.7435C130.992 80.7607 130.133 81.3799 132.347 82.2383C132.747 82.3931 133.249 82.5567 133.873 82.7247C137.955 83.8291 140.161 83.2315 140.216 83.2163C140.218 83.2327 140.219 83.2491 140.218 83.2655C140.216 83.3407 140.192 83.4175 140.159 83.4907L139.931 83.9131C139.908 83.9591 139.877 84.0019 139.84 84.0415C139.586 84.3207 139.052 84.4559 138.566 84.3463L130.311 82.5047C130.307 82.5031 130.302 82.5019 130.297 82.5011C130.231 82.4859 130.169 82.4667 130.111 82.4443C130.11 82.4439 130.109 82.4435 130.109 82.4435Z" fill="#D73660"/>
<path d="M105.901 89.4579C105.353 89.6059 104.72 89.4371 104.491 89.0787L104.231 88.6707C104.007 88.3111 104.266 87.8991 104.817 87.7523L112.88 85.5935C113.421 85.4475 114.06 85.6167 114.288 85.9699L114.552 86.3835C114.774 86.7391 114.512 87.1519 113.965 87.2947L105.901 89.4579Z" fill="#EE4277"/>
<path d="M104.491 89.0791L104.231 88.6711C104.168 88.5727 104.144 88.4715 104.152 88.3735C104.146 88.4723 104.17 88.5739 104.231 88.6711L104.491 89.0791Z" fill="#853B30"/>
<path d="M104.934 89.412C104.931 89.4112 104.928 89.41 104.925 89.4088C104.747 89.3376 104.598 89.2328 104.505 89.1012C104.5 89.094 104.496 89.086 104.491 89.0788L104.231 88.6708C104.17 88.5736 104.146 88.472 104.152 88.3732C104.17 88.1596 104.345 87.96 104.628 87.834C104.628 87.8484 104.624 88.1228 105.085 88.3016C105.582 88.4944 106.622 88.5748 108.794 88.0944C113.036 87.1568 114.047 85.7432 114.047 85.7432C114.145 85.8028 114.224 85.8844 114.288 85.97L114.552 86.3836C114.684 86.5952 114.646 86.8264 114.477 87.0092C114.362 87.1348 114.187 87.2372 113.965 87.2948L105.901 89.458C105.896 89.4596 105.89 89.4612 105.884 89.4624C105.561 89.5448 105.212 89.52 104.934 89.412Z" fill="#D73660"/>
<path d="M79.8744 82.0762C80.468 82.0738 80.9584 82.3838 80.9564 82.771L80.9624 83.217C80.958 83.603 80.4768 83.9182 79.8832 83.9206L71.156 83.9442C70.5716 83.9466 70.0772 83.6342 70.0756 83.2502L70.0708 82.8026C70.0748 82.4174 70.556 82.1034 71.1468 82.1026L79.8744 82.0762Z" fill="#EE4277"/>
<path d="M80.886 83.473C80.9344 83.3934 80.9608 83.3074 80.9624 83.217C80.962 83.3078 80.9352 83.3938 80.886 83.473Z" fill="#853B30"/>
<path d="M70.1652 83.5202C70.108 83.4406 70.0852 83.3446 70.0756 83.2502L70.0708 82.8026C70.0728 82.673 70.1272 82.5522 70.222 82.4482C70.41 82.2418 70.7544 82.103 71.1468 82.1026L79.8744 82.0762C79.882 82.0762 79.8888 82.0762 79.8964 82.0762C80.0908 82.0782 80.2732 82.1134 80.4304 82.1738C80.4316 82.1742 80.4328 82.1746 80.4348 82.1754C80.4368 82.1762 80.4392 82.177 80.4416 82.1782C80.75 82.3002 80.9572 82.5198 80.9564 82.771L80.9624 83.217C80.9608 83.3074 80.9344 83.3934 80.886 83.473C80.7536 83.6846 80.4604 83.8418 80.1048 83.8922C80.1192 83.8746 80.4016 83.4386 79.4736 83.079C78.9408 82.8722 78.0088 82.6906 76.3968 82.6286C71.9288 82.4598 70.1652 83.5202 70.1652 83.5202Z" fill="#D73660"/>
<path d="M58.9256 69.8878C59.4788 70.0266 59.762 70.4326 59.5436 70.7934L59.2964 71.2094C59.0736 71.5646 58.4492 71.7474 57.894 71.607L49.7628 69.5574C49.2164 69.421 48.932 69.0118 49.1496 68.6546L49.3992 68.2358C49.6168 67.881 50.2376 67.6998 50.7964 67.841L58.9256 69.8878Z" fill="#EE4277"/>
<path d="M49.0748 68.9271C49.0744 68.9083 49.0752 68.8891 49.0784 68.8691C49.0764 68.8883 49.076 68.9079 49.0764 68.9271C49.0748 68.9275 49.0748 68.9271 49.0748 68.9271ZM59.126 71.3947C59.1948 71.3403 59.2536 71.2779 59.2964 71.2095C59.2536 71.2787 59.196 71.3407 59.126 71.3947Z" fill="#853B30"/>
<path d="M49.0763 68.927C49.0759 68.9078 49.0763 68.8882 49.0783 68.869C49.0867 68.7986 49.1123 68.725 49.1495 68.6546L49.3991 68.2358C49.4215 68.1998 49.4475 68.1658 49.4779 68.133C49.7423 67.8474 50.2943 67.7142 50.7963 67.841L58.9255 69.8878C58.9831 69.9018 59.0379 69.919 59.0895 69.939C59.0895 69.9394 59.0907 69.9394 59.0907 69.9398C59.0943 69.941 59.0975 69.9422 59.1011 69.9438C59.5147 70.1086 59.7179 70.439 59.5691 70.7466C59.5611 70.7622 59.5527 70.7782 59.5435 70.7934L59.2963 71.2094C59.2535 71.2778 59.1947 71.3402 59.1259 71.3946C58.8823 71.5826 58.4975 71.6718 58.1195 71.631C58.1463 71.613 59.1159 70.9662 56.5907 69.9874C56.2531 69.8566 55.8515 69.7198 55.3783 69.5782C51.3959 68.3834 49.1615 68.9062 49.0763 68.927Z" fill="#D73660"/>
<path d="M70.7796 62.5039C71.3768 62.4891 71.8796 62.7931 71.902 63.1763L71.932 63.6211C71.9512 64.0079 71.4848 64.3319 70.8904 64.3459L62.1704 64.5575C61.5808 64.5723 61.08 64.2695 61.0528 63.8851L61.03 63.4383C61.0108 63.0555 61.474 62.7299 62.068 62.7159L70.7796 62.5039Z" fill="#00AB61"/>
<path d="M61.152 64.155C61.1276 64.119 61.1072 64.0806 61.0916 64.0414C61.1076 64.0798 61.1288 64.1174 61.1548 64.153C61.1532 64.1542 61.152 64.155 61.152 64.155Z" fill="#50432E"/>
<path d="M61.1548 64.153C61.1288 64.1174 61.1076 64.0798 61.0916 64.0414C61.0708 63.9918 61.0576 63.9394 61.0528 63.8854L61.03 63.4386C61.0232 63.3006 61.0784 63.171 61.18 63.0598C61.3604 62.8618 61.6868 62.7258 62.068 62.7162L70.7796 62.5042C70.7852 62.5034 70.79 62.5034 70.7952 62.5034C70.7992 62.503 70.8028 62.5034 70.806 62.503C71.01 62.5014 71.2012 62.537 71.3664 62.599C71.3688 62.6002 71.372 62.6014 71.3744 62.6022C71.3756 62.6026 71.3768 62.603 71.3776 62.6034C71.6708 62.719 71.8748 62.921 71.9004 63.155C71.9 63.1606 71.9012 63.1658 71.9012 63.1714C71.9012 63.1734 71.9012 63.1754 71.902 63.1766L71.932 63.6214C71.9316 63.6278 71.932 63.6338 71.9324 63.6394C71.9328 63.6422 71.9324 63.6458 71.932 63.6486V63.649C71.932 63.6518 71.932 63.6546 71.9316 63.6574L71.932 63.6582C71.932 63.6602 71.932 63.663 71.932 63.665C71.9316 63.6658 71.9316 63.6666 71.9316 63.6678C71.9316 63.6686 71.9312 63.6702 71.9316 63.6714C71.9132 63.9858 71.5628 64.2378 71.1064 64.3114C71.1172 64.295 71.3672 63.8746 70.5016 63.539C69.9708 63.3334 69.0224 63.1594 67.344 63.1306C62.9648 63.0574 61.2328 64.1046 61.1548 64.153Z" fill="#00A859"/>
<path d="M127.45 87.1518C128.024 87.0622 128.607 87.2986 128.744 87.6738L128.9 88.109C129.03 88.4834 128.665 88.8594 128.088 88.9458L119.585 90.217C119.012 90.3014 118.426 90.0694 118.291 89.6918L118.143 89.2578C118.007 88.8826 118.368 88.5082 118.949 88.4198L127.45 87.1518Z" fill="#00AB61"/>
<path d="M118.471 89.9461C118.468 89.9441 118.465 89.9417 118.463 89.9389C118.466 89.9409 118.468 89.9441 118.471 89.9461Z" fill="#50432E"/>
<path d="M118.471 89.9461C118.468 89.9441 118.466 89.9409 118.463 89.9389C118.384 89.8641 118.325 89.7805 118.291 89.6917L118.143 89.2577C118.077 89.0761 118.128 88.8945 118.264 88.7457C118.409 88.5869 118.65 88.4649 118.949 88.4197L127.45 87.1517C127.725 87.1089 128.004 87.1409 128.233 87.2281C128.236 87.2293 128.24 87.2309 128.244 87.2321C128.248 87.2337 128.251 87.2349 128.256 87.2369C128.484 87.3273 128.66 87.4733 128.736 87.6521C128.738 87.6565 128.739 87.6605 128.74 87.6649C128.742 87.6685 128.744 87.6709 128.744 87.6737L128.9 88.1089C129.007 88.4353 128.74 88.7481 128.288 88.8877C128.295 88.8725 128.39 88.5309 127.783 88.2957C127.269 88.0965 126.252 87.9729 124.251 88.1849C119.854 88.6525 118.488 89.9289 118.471 89.9461Z" fill="#00A859"/>
<path d="M64.206 76.5697C64.7836 76.4805 65.3656 76.7157 65.4964 77.0917L65.6536 77.5253C65.7844 77.9005 65.426 78.2781 64.8408 78.3641L56.3396 79.6341C55.7668 79.7197 55.186 79.4869 55.052 79.1105L54.896 78.6753C54.7644 78.2993 55.1268 77.9249 55.7048 77.8365L64.206 76.5697Z" fill="#00AB61"/>
<path d="M55.2264 79.3625C55.1876 79.3269 55.154 79.2893 55.126 79.2489C55.1544 79.2893 55.1884 79.3273 55.2272 79.3621C55.2268 79.3629 55.2264 79.3625 55.2264 79.3625Z" fill="#50432E"/>
<path d="M55.2272 79.3621C55.1884 79.3273 55.1544 79.2893 55.126 79.2489C55.0948 79.2057 55.0708 79.1585 55.052 79.1105L54.896 78.6753C54.8316 78.4937 54.884 78.3113 55.0204 78.1625C55.1656 78.0041 55.4068 77.8821 55.7048 77.8365L64.206 76.5697C64.4832 76.5269 64.7616 76.5589 64.9912 76.6449C64.9944 76.6465 64.9984 76.6477 65.0016 76.6489C65.006 76.6509 65.01 76.6521 65.0136 76.6537C65.2232 76.7381 65.3896 76.8685 65.4704 77.0293C65.4808 77.0497 65.4892 77.0701 65.4964 77.0917L65.6536 77.5253C65.654 77.5285 65.6552 77.5305 65.6564 77.5337C65.6568 77.5341 65.6568 77.5349 65.6572 77.5361C65.6576 77.5381 65.6584 77.5393 65.6596 77.5417C65.6596 77.5425 65.66 77.5437 65.66 77.5449C65.6604 77.5469 65.6612 77.5481 65.6612 77.5501C65.662 77.5513 65.6628 77.5525 65.6624 77.5541C65.6628 77.5553 65.6632 77.5565 65.6636 77.5573C65.664 77.5597 65.6652 77.5609 65.6648 77.5625C65.6652 77.5637 65.6656 77.5637 65.6652 77.5649C65.7464 77.8789 65.4796 78.1709 65.0472 78.3041C65.0524 78.2893 65.1468 77.9485 64.5392 77.7129C64.0248 77.5133 63.0072 77.3897 61.0088 77.6017C56.65 78.0661 55.2696 79.3225 55.2272 79.3621Z" fill="#00A859"/>
<path d="M133.968 74.0963C134.421 74.3475 134.475 74.7887 134.087 75.0831L133.644 75.4211C133.255 75.7159 132.574 75.7491 132.125 75.5003L125.479 71.8355C125.028 71.5875 124.974 71.1443 125.357 70.8499L125.806 70.5103C126.192 70.2187 126.877 70.1827 127.328 70.4323L133.968 74.0963Z" fill="#00AB61"/>
<path d="M125.15 71.0923C125.162 71.0683 125.176 71.0439 125.193 71.0203C125.178 71.0435 125.164 71.0683 125.151 71.0931C125.15 71.0923 125.15 71.0923 125.15 71.0923Z" fill="#50432E"/>
<path d="M132.317 75.5687C132.358 75.5571 133.956 75.0423 130.777 73.0503C129.876 72.4867 129.04 72.0851 128.302 71.7991C126.437 71.0759 125.202 71.0919 125.151 71.0931C125.164 71.0683 125.178 71.0435 125.193 71.0203C125.236 70.9603 125.292 70.9027 125.357 70.8495L125.806 70.5099C125.825 70.4955 125.846 70.4815 125.866 70.4687C126.208 70.2487 126.736 70.2043 127.151 70.3531C127.161 70.3567 127.172 70.3599 127.182 70.3639C127.183 70.3643 127.184 70.3647 127.184 70.3647C127.235 70.3843 127.282 70.4067 127.328 70.4319L133.968 74.0959C134.375 74.3219 134.459 74.7007 134.192 74.9887C134.161 75.0215 134.127 75.0527 134.087 75.0827L133.644 75.4207C133.616 75.4411 133.588 75.4607 133.558 75.4783C133.558 75.4791 133.555 75.4803 133.555 75.4807C133.553 75.4811 133.553 75.4819 133.552 75.4827C133.212 75.6827 132.715 75.7087 132.317 75.5687Z" fill="#00A859"/>
<path d="M97.4483 59.7079C97.9923 59.8627 98.2403 60.2787 98.0067 60.6327L97.7259 61.0383C97.4839 61.3899 96.8456 61.5503 96.304 61.3951L88.3167 59.1155C87.7795 58.9623 87.5291 58.5483 87.7683 58.1947L88.0483 57.7867C88.2847 57.4335 88.9243 57.2751 89.4679 57.4287L97.4483 59.7079Z" fill="#00AB61"/>
<path d="M87.6743 58.4671C87.6767 58.3755 87.7059 58.2807 87.7683 58.1943C87.7087 58.2827 87.6795 58.3755 87.6779 58.4667C87.6763 58.4667 87.6743 58.4671 87.6743 58.4671ZM97.5375 61.2243C97.6135 61.1703 97.6775 61.1083 97.7259 61.0379C97.6775 61.1083 97.6131 61.1711 97.5375 61.2243Z" fill="#50432E"/>
<path d="M87.678 58.4668C87.6796 58.3756 87.7088 58.2828 87.7684 58.1944L88.0484 57.7864C88.0676 57.7588 88.088 57.7324 88.1112 57.7076C88.3844 57.4104 88.9672 57.2864 89.468 57.4284L97.4484 59.7076C97.49 59.7188 97.5288 59.7316 97.566 59.746C97.5664 59.7464 97.5668 59.7464 97.5672 59.7468C97.5744 59.7496 97.5816 59.7524 97.5888 59.7552C98.0336 59.9368 98.22 60.31 98.0068 60.6324L97.726 61.038C97.6776 61.1084 97.6136 61.1704 97.5376 61.2244C97.284 61.4032 96.8984 61.478 96.5188 61.4244C96.5556 61.4084 97.6736 60.7264 94.6964 59.5724C94.4664 59.4832 94.2116 59.392 93.9308 59.2972C90.0332 57.988 87.7708 58.4472 87.678 58.4668Z" fill="#00A859"/>
<path d="M76.2492 72.914C75.8484 73.1968 75.1604 73.212 74.7236 72.952L74.2212 72.6484C73.7856 72.3868 73.7628 71.942 74.1604 71.662L80.092 67.5152C80.4924 67.2324 81.1804 67.2152 81.616 67.478L82.1168 67.7776C82.5568 68.042 82.5828 68.4852 82.1788 68.7676L76.2492 72.914Z" fill="#FFCE30"/>
<path d="M74.7236 72.9521L74.2212 72.6485C74.218 72.6465 74.2148 72.6441 74.2112 72.6425C74.2148 72.6441 74.2184 72.6465 74.2212 72.6485L74.7236 72.9521ZM81.616 67.4781C81.56 67.4441 81.5004 67.4149 81.4368 67.3905C81.3768 67.3673 81.314 67.3485 81.25 67.3333C81.2504 67.3325 81.2504 67.3325 81.2504 67.3325C81.3128 67.3473 81.3744 67.3657 81.434 67.3885C81.4976 67.4133 81.5588 67.4433 81.616 67.4781Z" fill="#8F4C33"/>
<path d="M74.9 73.0375C74.8996 73.0375 74.8988 73.0371 74.898 73.0367C74.8408 73.0147 74.786 72.9887 74.7344 72.9595C74.7312 72.9571 74.7272 72.9547 74.7236 72.9523L74.2212 72.6487C74.2184 72.6467 74.2148 72.6443 74.2112 72.6427C74.2108 72.6427 74.2108 72.6419 74.2104 72.6419C74.2072 72.6403 74.2044 72.6383 74.202 72.6367C74.2012 72.6363 74.2004 72.6359 74.1996 72.6355C74.1972 72.6339 74.1952 72.6323 74.192 72.6307C74.1912 72.6307 74.1908 72.6295 74.19 72.6291C74.1876 72.6279 74.1852 72.6263 74.1832 72.6247C74.182 72.6239 74.1808 72.6235 74.1808 72.6223C74.1784 72.6215 74.1768 72.6203 74.1744 72.6191C74.1736 72.6179 74.1724 72.6175 74.1708 72.6167C74.1696 72.6155 74.1684 72.6151 74.1676 72.6135C73.8372 72.3855 73.8056 72.0479 74.0484 71.7835C74.0528 71.7927 74.1356 71.9143 74.36 72.0015C74.8148 72.1779 75.85 72.2131 77.9932 70.8927C81.1976 68.9195 81.2488 67.3775 81.25 67.3335C81.314 67.3487 81.3768 67.3675 81.4368 67.3907C81.5004 67.4151 81.56 67.4443 81.616 67.4783L82.1168 67.7779C82.502 68.0091 82.5696 68.3775 82.31 68.6555C82.2728 68.6947 82.2296 68.7331 82.1788 68.7679L76.2492 72.9143C75.9016 73.1591 75.3384 73.2035 74.91 73.0415C74.9068 73.0399 74.9032 73.0387 74.9 73.0375Z" fill="#FDBE33"/>
<path d="M121.33 80.4723C121.902 80.5711 122.243 80.9539 122.094 81.3263L121.915 81.7587C121.762 82.1279 121.169 82.3531 120.598 82.2551L112.162 80.7975C111.591 80.6999 111.248 80.3143 111.398 79.9447L111.578 79.5123C111.73 79.1387 112.327 78.9171 112.903 79.0163L121.33 80.4723Z" fill="#FFCE30"/>
<path d="M121.728 82.0043C121.813 81.9331 121.878 81.8503 121.915 81.7591C121.879 81.8519 121.813 81.9343 121.728 82.0043Z" fill="#8F4C33"/>
<path d="M111.376 80.2207C111.358 80.1315 111.364 80.0359 111.398 79.9451L111.578 79.5127C111.604 79.4491 111.644 79.3887 111.694 79.3347C111.934 79.0731 112.427 78.9347 112.903 79.0167L121.33 80.4727C121.336 80.4739 121.339 80.4743 121.343 80.4751C121.347 80.4755 121.352 80.4763 121.356 80.4771C121.444 80.4939 121.526 80.5175 121.601 80.5467C121.602 80.5467 121.603 80.5475 121.604 80.5479C121.608 80.5491 121.611 80.5503 121.614 80.5515C121.986 80.6987 122.192 80.9859 122.112 81.2743C122.11 81.2787 122.11 81.2831 122.108 81.2871C122.107 81.2903 122.106 81.2947 122.104 81.2979C122.103 81.3039 122.101 81.3099 122.098 81.3159C122.097 81.3199 122.096 81.3231 122.094 81.3267L121.915 81.7591C121.878 81.8503 121.813 81.9331 121.728 82.0043C121.514 82.1787 121.17 82.2747 120.816 82.2635C120.84 82.2439 121.529 81.6743 119.756 80.9871C119.282 80.8035 118.633 80.6119 117.749 80.4195C113.498 79.4947 111.376 80.2207 111.376 80.2207Z" fill="#FDBE33"/>
<path d="M153.578 69.8833C154.155 69.8213 154.718 70.0765 154.82 70.4549L154.934 70.8973C155.032 71.2749 154.634 71.6373 154.057 71.7009L145.452 72.6497C144.866 72.7197 144.304 72.4585 144.209 72.0829L144.093 71.6421C143.986 71.2625 144.39 70.8997 144.972 70.8357L153.578 69.8833Z" fill="#FFCE30"/>
<path d="M144.36 72.3418C144.351 72.3318 144.344 72.3214 144.335 72.3114C144.344 72.3214 144.352 72.3306 144.363 72.3402C144.36 72.341 144.36 72.3418 144.36 72.3418ZM154.948 71.0418C154.951 70.9946 154.946 70.9454 154.934 70.8974C154.948 70.9458 154.951 70.9946 154.948 71.0418Z" fill="#8F4C33"/>
<path d="M144.363 72.3402C144.352 72.3306 144.344 72.3214 144.335 72.3114C144.278 72.241 144.232 72.1638 144.209 72.083L144.093 71.6422C144.045 71.4726 144.099 71.307 144.225 71.1706C144.381 70.9986 144.649 70.8714 144.972 70.8358L153.578 69.8834C153.836 69.8558 154.089 69.8906 154.302 69.9722C154.303 69.9726 154.305 69.9734 154.306 69.9738C154.308 69.9746 154.31 69.9754 154.313 69.9762C154.566 70.0766 154.758 70.2422 154.816 70.4442C154.818 70.4474 154.818 70.4514 154.82 70.455L154.934 70.8974C154.946 70.9454 154.951 70.9946 154.948 71.0418C154.928 71.3114 154.651 71.547 154.258 71.6482C154.264 71.6318 154.398 71.2686 153.728 71.0086C153.208 70.8074 152.206 70.6674 150.286 70.7994C145.912 71.0998 144.418 72.295 144.363 72.3402Z" fill="#FDBE33"/>
<path d="M123.296 59.9373C123.879 59.9145 124.399 60.2061 124.442 60.5869L124.478 61.0349C124.523 61.4197 124.066 61.7545 123.48 61.7805L114.771 62.1453C114.178 62.1717 113.662 61.8765 113.623 61.4941L113.58 61.0469C113.541 60.6637 113.995 60.3305 114.588 60.3041L123.296 59.9373Z" fill="#FFCE30"/>
<path d="M124.451 61.2498C124.477 61.1814 124.487 61.1094 124.478 61.035C124.488 61.1102 124.477 61.1814 124.451 61.2498Z" fill="#8F4C33"/>
<path d="M113.736 61.7595C113.672 61.6807 113.637 61.5895 113.623 61.4943L113.58 61.0471C113.565 60.9003 113.623 60.7611 113.732 60.6435C113.909 60.4539 114.222 60.3207 114.588 60.3043L123.296 59.9375C123.305 59.9371 123.314 59.9371 123.322 59.9367C123.328 59.9367 123.333 59.9371 123.338 59.9371C123.344 59.9363 123.35 59.9367 123.356 59.9367C123.358 59.9363 123.36 59.9367 123.362 59.9367C123.558 59.9371 123.746 59.9719 123.908 60.0347C123.909 60.0355 123.91 60.0359 123.912 60.0363C123.916 60.0379 123.921 60.0399 123.926 60.0419C124.194 60.1495 124.39 60.3307 124.436 60.5439C124.437 60.5503 124.437 60.5563 124.439 60.5623C124.439 60.5651 124.44 60.5675 124.44 60.5703C124.441 60.5763 124.442 60.5815 124.442 60.5871L124.478 61.0351C124.487 61.1095 124.477 61.1815 124.451 61.2499C124.358 61.4855 124.066 61.6723 123.691 61.7407C123.702 61.7231 123.922 61.3147 123.106 60.9983C122.577 60.7931 121.614 60.6271 119.878 60.6287C115.391 60.6327 113.736 61.7595 113.736 61.7595Z" fill="#FDBE33"/>
<path d="M92.9924 83.8859C93.3264 84.2035 93.1996 84.6423 92.708 84.8595L92.14 85.1087C91.6468 85.3263 90.9748 85.2435 90.6396 84.9251L85.7272 80.2543C85.3944 79.9363 85.5196 79.4995 86.0108 79.2839L86.5788 79.0331C87.0708 78.8171 87.746 78.8959 88.0804 79.2151L92.9924 83.8859Z" fill="#FFCE30"/>
<path d="M91.0004 85.1241C90.9292 85.0965 90.862 85.0637 90.8012 85.0261C90.8472 85.0221 92.5936 84.7949 90.3388 82.3325C88.9904 80.8553 87.6188 80.1289 86.7232 79.7817C86.1048 79.5417 85.7128 79.4837 85.7128 79.4837C85.7904 79.4061 85.8884 79.3397 86.0108 79.2841L86.5788 79.0333C86.5844 79.0305 86.5904 79.0281 86.5964 79.0257C86.948 78.8773 87.3876 78.8773 87.7312 79.0049C87.7368 79.0073 87.742 79.0093 87.7476 79.0113C87.7488 79.0121 87.75 79.0125 87.7516 79.0129C87.8732 79.0601 87.982 79.1241 88.068 79.2037C88.0724 79.2073 88.0768 79.2109 88.0804 79.2153L92.9924 83.8861C93.2348 84.1173 93.234 84.4121 93.0272 84.6393C92.9496 84.7245 92.8424 84.8005 92.708 84.8597L92.14 85.1089C92.1368 85.1105 92.1344 85.1113 92.132 85.1125C91.778 85.2657 91.3408 85.2561 91.0004 85.1241Z" fill="#FDBE33"/>
<path d="M112.766 68.906C112.766 68.906 111.613 65.3216 100.667 65.4548C90.9484 65.5708 85.2208 68.8032 88.5596 73.6636C91.8984 78.5268 100.918 79.416 108.578 76.63C116.232 73.846 115.028 71.9968 112.766 68.906Z" fill="#F89B4D"/>
<path d="M97.1748 65.6463C98.2672 65.5343 99.4348 65.4695 100.667 65.4551C99.4352 65.4695 98.2676 65.5343 97.1748 65.6463Z" fill="#8F4A33"/>
<path d="M87.7612 70.1172C88.4716 67.7808 91.9736 66.1792 97.1748 65.646C98.2676 65.534 99.4352 65.4692 100.667 65.4548C105.164 65.4004 108.008 65.9732 109.798 66.6668C112.365 67.662 112.766 68.906 112.766 68.906C114.801 71.6888 115.96 73.47 110.568 75.8328C110.712 74.7356 109.912 73.586 108.885 72.1824C108.885 72.1824 108.487 70.9376 105.918 69.942C104.129 69.2488 101.285 68.676 96.792 68.73C93.1184 68.7748 90.0164 69.2652 87.7612 70.1172Z" fill="#78412F"/>
<defs>
<radialGradient id="paint0_radial_122_563" cx="0" cy="0" r="1" gradientUnits="userSpaceOnUse" gradientTransform="translate(463.505 128.172) rotate(21.1869) scale(432.408 220.503)">
<stop stop-color="#443F3A"/>
<stop offset="1" stop-color="#352F2E"/>
</radialGradient>
</defs>
</svg>
