<svg width="80" height="80" viewBox="0 0 80 80" fill="none" xmlns="http://www.w3.org/2000/svg">
<path d="M79.2697 64.2698L54.9999 40L79.2697 15.7302C79.5297 15.4702 79.7197 15.1652 79.8397 14.8402C80.1697 13.9502 79.9797 12.9102 79.2697 12.1952L67.8048 0.730316C67.0898 0.0153213 66.0498 -0.174677 65.1598 0.16032C64.8348 0.280319 64.5298 0.470318 64.2698 0.730316L40 25.0001L15.7302 0.730316C15.4702 0.470318 15.1652 0.280319 14.8402 0.16032C13.9502 -0.169677 12.9102 0.0153213 12.1952 0.730316L0.730316 12.1952C0.0153213 12.9102 -0.174677 13.9502 0.16032 14.8402C0.280319 15.1652 0.470318 15.4702 0.730316 15.7302L25.0001 40L0.730316 64.2698C0.470318 64.5298 0.280319 64.8348 0.16032 65.1598C-0.169677 66.0498 0.0153213 67.0898 0.730316 67.8048L12.1952 79.2697C12.9102 79.9847 13.9502 80.1747 14.8402 79.8397C15.1652 79.7197 15.4702 79.5297 15.7302 79.2697L40 54.9999L64.2698 79.2697C64.5298 79.5297 64.8348 79.7197 65.1598 79.8397C66.0498 80.1697 67.0898 79.9847 67.8048 79.2697L79.2697 67.8048C79.9847 67.0898 80.1747 66.0498 79.8397 65.1598C79.7197 64.8348 79.5297 64.5298 79.2697 64.2698Z" fill="#AE1E1E"/>
</svg>
