<svg width="200" height="200" viewBox="0 0 200 200" fill="none" xmlns="http://www.w3.org/2000/svg">
<path d="M25.7868 118.738C25.7524 137.238 59.8672 152.212 101.98 152.18C144.101 152.15 178.268 137.128 178.302 118.628C178.334 100.127 144.22 85.1565 102.1 85.1861C59.9868 85.2161 25.818 100.238 25.7868 118.738Z" fill="#C0C5C6"/>
<path fill-rule="evenodd" clip-rule="evenodd" d="M173.651 112.71C173.583 112.487 173.512 112.263 173.435 112.042C173.512 112.263 173.585 112.488 173.651 112.71Z" fill="url(#paint0_radial_122_462)"/>
<path d="M52.6524 144.257C52.1476 144.069 51.6504 143.878 51.1572 143.685C61.2324 145.842 72.5468 147.049 84.5152 147.04C126.629 147.01 160.798 131.941 160.834 113.386C160.841 109.092 159.02 104.987 155.693 101.216C156.334 99.3191 156.878 97.4275 157.336 95.5571C163.894 98.5819 169.175 102.148 172.794 106.086C174.908 108.386 176.455 110.81 177.363 113.332C177.443 113.553 177.518 113.777 177.588 114.001C178.03 115.411 178.272 116.85 178.3 118.312C178.301 118.417 178.303 118.522 178.302 118.629C178.298 120.29 178.02 121.923 177.485 123.522C172.064 139.708 140.316 152.154 101.98 152.181C83.1604 152.194 65.9412 149.211 52.6524 144.257Z" fill="#B6BCBD"/>
<path d="M40.4224 86.1702C46.3272 87.7814 53.2688 87.4458 53.2688 87.4458C52.6548 96.2118 56.7544 105.975 56.7544 105.975C44.2036 108.559 38.3684 104.999 35.0856 99.3942C31.6728 93.577 33.4044 84.2506 40.4224 86.1702ZM31.3652 104.523C41.96 120.089 59.2592 113.082 59.2592 113.082C60.5796 115.513 78.672 144.862 120.793 132.135C162.915 119.404 155.965 65.8218 155.965 65.8218C149.329 40.7098 59.5668 47.7282 53.5664 62.3986C51.836 66.6158 52.9988 77.5458 52.9988 77.5458C52.85 78.5202 51.9568 80.3062 47.5324 79.177C43.1024 78.0486 36.3112 77.4926 32.5396 79.2014C28.7712 80.9122 20.7752 88.959 31.3652 104.523Z" fill="#FEFEFE"/>
<path d="M155.037 74.5869C155.037 74.5869 151.913 81.9901 141.029 85.7049C141.029 85.7049 144.838 114.293 126.806 128.547C126.806 128.547 153.766 116.412 155.037 74.5869Z" fill="#D7DBDC"/>
<path fill-rule="evenodd" clip-rule="evenodd" d="M52.9987 77.5458C52.9987 77.5458 52.2415 72.3618 52.4523 67.8062L52.4571 65.9902C52.5443 66.2378 52.6367 66.4834 52.7327 66.7242C52.3603 71.5478 52.9987 77.5458 52.9987 77.5458Z" fill="url(#paint1_radial_122_462)"/>
<path d="M82.268 132.001C67.1824 126.174 60.0688 114.571 59.2592 113.082C59.2592 113.082 50.6688 116.561 41.8876 113.169C38.208 111.747 34.494 109.119 31.3652 104.523C25.8324 96.3909 25.3724 90.3121 26.7332 86.1157C27.9764 82.2813 30.7392 80.0185 32.5396 79.2013C36.3112 77.4925 43.1024 78.0485 47.5324 79.1769C51.4388 80.1749 52.5916 78.8989 52.9104 77.9157C52.9528 77.7853 52.9812 77.6601 52.9988 77.5457C52.9988 77.5457 52.3604 71.5477 52.7328 66.7241C55.8716 74.5349 64.1588 78.5653 68.134 80.1005C69.4728 80.6177 70.324 80.8521 70.324 80.8521C62.1868 123.411 88.4516 133.822 89.0684 134.06C89.0756 134.063 89.0796 134.064 89.0796 134.064C86.6488 133.519 84.3804 132.817 82.268 132.001ZM53.2688 87.4457C53.2688 87.4457 45.7604 86.9917 39.2316 85.1277C31.368 82.8809 29.4184 93.0385 33.2636 99.4241C34.9836 102.278 37.234 104.503 40.5372 105.779C44.0948 107.153 48.8744 107.429 55.5296 106.212C55.9304 106.141 56.3388 106.061 56.7544 105.975C56.7544 105.975 53.4716 98.1545 53.222 90.2301C53.2 89.3169 53.214 88.3865 53.2688 87.4457Z" fill="#DDE0DF"/>
<path d="M55.5295 106.212C55.9307 106.139 56.3391 106.06 56.7543 105.975C56.3387 106.061 55.9303 106.141 55.5295 106.212Z" fill="#A7ABAD"/>
<path d="M56.7544 105.975C56.7544 105.975 54.8736 101.955 53.852 96.2915C54.88 101.847 56.7544 105.975 56.7544 105.975Z" fill="#A7ABAD"/>
<path fill-rule="evenodd" clip-rule="evenodd" d="M53.2927 92.037C53.1847 90.595 53.16 89.1102 53.2572 87.619C53.2032 88.4842 53.1944 89.3578 53.222 90.2302C53.2364 90.8378 53.2651 91.439 53.3083 92.0294C53.3039 92.0318 53.2975 92.0338 53.2927 92.037Z" fill="url(#paint2_radial_122_462)"/>
<path d="M40.5372 105.778C37.234 104.502 34.9836 102.278 33.2636 99.4239C29.4184 93.0383 31.368 82.8807 39.2316 85.1275C45.7604 86.9915 53.2688 87.4455 53.2688 87.4455C53.2688 87.4455 46.3272 87.7811 40.4224 86.1699C36.9412 85.2175 34.7608 87.0339 33.8632 89.8143C32.9524 92.6407 33.366 96.4639 35.0856 99.3939C36.694 102.139 38.9128 104.393 42.2332 105.676C45.4692 106.925 49.7516 107.252 55.5296 106.212C48.8744 107.429 44.0948 107.152 40.5372 105.778Z" fill="#BCC0C1"/>
<path d="M53.222 90.2302C53.1924 89.2994 53.2048 88.3682 53.2688 87.4458C53.214 88.3866 53.2 89.317 53.222 90.2302Z" fill="#BCC0C1"/>
<path d="M155.965 65.8217C155.936 76.6957 132.741 85.5485 104.159 85.5945C75.5752 85.6409 52.4304 76.8633 52.4572 65.9901C52.4844 55.1169 75.6724 48.3145 104.256 48.2673C132.839 48.2209 155.993 54.9489 155.965 65.8217Z" fill="#C0C5C6"/>
<path d="M152.441 65.9015C152.416 75.9935 130.775 84.2083 104.103 84.2527C77.4308 84.2951 55.8328 76.1495 55.8588 66.0579C55.886 55.9667 77.5196 49.6555 104.192 49.6115C130.864 49.5687 152.468 55.8103 152.441 65.9015Z" fill="#9A9FA3"/>
<path d="M104.103 84.2525C124.88 84.2181 142.602 79.2253 149.432 72.2513C141.96 63.8453 124.609 58.0869 104.171 58.1217C83.82 58.1545 66.5471 64.1113 58.9911 72.5453C65.8947 79.4201 83.4764 84.2861 104.103 84.2525Z" fill="#4B312B"/>
<defs>
<radialGradient id="paint0_radial_122_462" cx="0" cy="0" r="1" gradientUnits="userSpaceOnUse" gradientTransform="translate(25.3024 236.708) rotate(21.1192) scale(487.156 349.268)">
<stop stop-color="#37393A"/>
<stop offset="1" stop-color="#2E2C2F"/>
</radialGradient>
<radialGradient id="paint1_radial_122_462" cx="0" cy="0" r="1" gradientUnits="userSpaceOnUse" gradientTransform="translate(25.4078 236.874) rotate(21.1183) scale(486.614 349.271)">
<stop stop-color="#3C3F40"/>
<stop offset="1" stop-color="#313032"/>
</radialGradient>
<radialGradient id="paint2_radial_122_462" cx="0" cy="0" r="1" gradientUnits="userSpaceOnUse" gradientTransform="translate(25.3986 236.761) rotate(21.1185) scale(488.006 349.271)">
<stop stop-color="#3A3D3F"/>
<stop offset="1" stop-color="#302E30"/>
</radialGradient>
</defs>
</svg>
