<svg width="40" height="46" viewBox="0 0 40 46" fill="none" xmlns="http://www.w3.org/2000/svg">
<path d="M25.7143 6.54286V12.6114C27.3314 13.3171 28.8171 14.3257 30.1029 15.6114C32.8 18.3086 34.2857 21.8971 34.2857 25.7143C34.2857 29.5314 32.8 33.1171 30.1029 35.8171C27.4057 38.5143 23.8171 40 20 40C16.1829 40 12.5971 38.5143 9.89714 35.8171C7.2 33.12 5.71429 29.5314 5.71429 25.7143C5.71429 21.8971 7.2 18.3114 9.89714 15.6114C11.1829 14.3257 12.6686 13.3171 14.2857 12.6114V6.54286C6.02571 9.00286 0 16.6543 0 25.7143C0 36.76 8.95429 45.7143 20 45.7143C31.0457 45.7143 40 36.76 40 25.7143C40 16.6543 33.9743 9.00286 25.7143 6.54286ZM17.1429 0H22.8571V22.8571H17.1429V0Z" fill="#1C7462"/>
</svg>
