<svg width="40" height="42" viewBox="0 0 40 42" fill="none" xmlns="http://www.w3.org/2000/svg">
<path d="M37.0796 24.7085C34.9054 20.9407 36.2115 16.113 40 13.9181L35.9264 6.86188C34.7629 7.54341 33.4076 7.9347 31.9642 7.9347C27.6108 7.9347 24.0814 4.38196 24.0814 0H15.9316C15.942 1.35268 15.6051 2.7235 14.8795 3.97771C12.7054 7.74553 7.86732 9.02565 4.07359 6.84374L0 13.9C1.17388 14.5659 2.18969 15.5429 2.91008 16.7945C5.08163 20.5571 3.78077 25.3744 0.00777409 27.5745L4.08137 34.6307C5.24229 33.9544 6.5872 33.5683 8.0254 33.5683C12.3659 33.5683 15.8849 37.0977 15.9083 41.4615H24.058C24.0555 40.1218 24.3923 38.7665 25.1101 37.5253C27.2817 33.7626 32.1068 32.4799 35.8979 34.6489L39.9715 27.5926C38.8054 26.9267 37.7974 25.9523 37.0796 24.7085ZM20.0026 29.1267C15.3667 29.1267 11.6066 25.3693 11.6066 20.7308C11.6066 16.0923 15.3641 12.3348 20.0026 12.3348C24.6385 12.3348 28.3985 16.0923 28.3985 20.7308C28.3985 25.3693 24.6411 29.1267 20.0026 29.1267Z" fill="black"/>
</svg>
