<svg width="40" height="50" viewBox="0 0 40 50" fill="none" xmlns="http://www.w3.org/2000/svg">
<path d="M3.07715 15.3846V46.1539C3.07715 47.8462 4.46176 49.2308 6.15407 49.2308H33.8464C35.5387 49.2308 36.9233 47.8462 36.9233 46.1539V15.3846H3.07715ZM12.3079 43.077H9.23099V21.5385H12.3079V43.077ZM18.4618 43.077H15.3848V21.5385H18.4618V43.077ZM24.6156 43.077H21.5387V21.5385H24.6156V43.077ZM30.7695 43.077H27.6925V21.5385H30.7695V43.077Z" fill="black"/>
<path d="M37.6923 6.15385H27.6923V2.30769C27.6923 1.04 26.6523 0 25.3846 0H14.6154C13.3477 0 12.3077 1.04 12.3077 2.30769V6.15385H2.30769C1.03692 6.15385 0 7.19077 0 8.46154V12.3077H40V8.46154C40 7.19077 38.96 6.15385 37.6923 6.15385ZM24.6154 6.15385H15.3846V3.11692H24.6154V6.15385Z" fill="black"/>
</svg>
