<svg width="200" height="200" viewBox="0 0 200 200" fill="none" xmlns="http://www.w3.org/2000/svg">
<path d="M111.166 156.249L110.525 169.079C110.525 169.079 111.585 169.92 113.27 169.183C114.952 168.453 159.688 142.992 161.778 141.34C163.864 139.689 165.639 137.083 165.852 135.216C166.066 133.348 168.521 123.559 166.448 122.927C164.378 122.293 111.218 155.215 111.166 156.249Z" fill="#FCBA65"/>
<path d="M112.595 169.408C111.307 169.7 110.525 169.079 110.525 169.079L110.64 166.788C110.64 166.788 123.245 161.34 131.416 156.338C139.588 151.336 146.147 145.569 151.604 142.12C157.052 138.675 162.227 132.51 154.854 132.615C160.659 128.737 165.045 125.364 166.204 123.444C166.207 123.44 166.208 123.436 166.211 123.432C166.226 123.408 166.24 123.382 166.255 123.357C166.255 123.357 166.255 123.357 166.256 123.357C166.277 123.318 166.299 123.278 166.318 123.24L166.319 123.239C166.324 123.229 166.328 123.22 166.332 123.211C166.334 123.207 166.336 123.204 166.338 123.2C166.345 123.184 166.353 123.168 166.359 123.154C166.362 123.15 166.362 123.147 166.365 123.143C166.369 123.134 166.373 123.126 166.376 123.117C166.376 123.116 166.377 123.114 166.378 123.113C166.384 123.1 166.39 123.087 166.395 123.073C166.396 123.07 166.397 123.067 166.399 123.065C166.408 123.042 166.416 123.02 166.424 122.999C166.424 122.998 166.426 122.996 166.426 122.994C166.433 122.974 166.44 122.955 166.446 122.935C166.447 122.932 166.448 122.93 166.448 122.927C166.81 123.037 167.032 123.423 167.155 123.997C167.736 126.723 166.029 133.672 165.852 135.216C165.639 137.083 163.864 139.689 161.778 141.34C159.688 142.992 114.952 168.453 113.27 169.183C113.032 169.288 112.806 169.361 112.595 169.408Z" fill="#F9A756"/>
<path d="M111.166 156.249L110.525 169.079C110.525 169.079 107.668 168.068 104.69 166.381C101.706 164.696 35.8079 127.981 34.7919 127.107C33.7767 126.232 32.5407 124.995 32.8335 123.836C33.1267 122.676 33.7119 115.906 33.7119 115.906C33.7119 115.906 35.2151 113.936 38.0647 115.848C40.9131 117.758 111.294 153.692 111.166 156.249Z" fill="#FDC880"/>
<path d="M94.5746 149.078C94.5746 149.078 34.3734 118.282 33.7118 115.906C33.511 115.181 60.6062 98.6072 91.3022 96.4872C121.993 94.366 168.363 116.876 166.448 122.926C164.537 128.976 115.677 156.345 112.453 156.442C109.229 156.538 94.5746 149.078 94.5746 149.078Z" fill="#FAAB4A"/>
<path d="M94.5703 149.076C94.4431 149.011 91.3135 147.411 86.5627 144.956C86.5627 144.956 86.5703 144.96 86.5855 144.967C91.3367 147.421 94.4431 149.011 94.5703 149.076Z" fill="#FAAF63"/>
<path d="M112.685 156.407L112.684 156.407C112.591 156.428 112.513 156.44 112.453 156.442C112.13 156.451 111.691 156.385 111.165 156.258C106.438 155.117 94.5747 149.078 94.5747 149.078C94.5743 149.077 94.5743 149.077 94.5731 149.077L94.5719 149.076L94.5703 149.076C94.4431 149.011 91.3366 147.421 86.5854 144.966C87.1994 145.248 99.5255 150.791 112.111 147.942C113.06 147.727 114.013 147.464 114.96 147.148C117.646 147.194 120.885 146.864 124.791 145.98C125.999 145.706 127.27 145.379 128.611 144.994C141.711 141.228 152.535 134.364 157.76 126.803C160.225 125.136 161.657 123.432 162.307 122.723C162.433 122.585 162.585 122.505 162.757 122.466C163.213 122.362 163.811 122.548 164.441 122.725C165.073 122.902 165.737 123.072 166.328 122.938C166.371 122.929 166.413 122.918 166.455 122.905C166.454 122.906 166.455 122.908 166.453 122.909C166.454 122.91 166.453 122.911 166.453 122.912C166.452 122.916 166.451 122.921 166.448 122.926C166.448 122.929 166.447 122.932 166.445 122.934C166.439 122.954 166.433 122.974 166.426 122.993C166.425 122.996 166.424 122.997 166.423 122.998C166.415 123.02 166.407 123.042 166.399 123.064C166.397 123.067 166.396 123.07 166.395 123.072C166.389 123.086 166.384 123.099 166.378 123.112C166.377 123.114 166.376 123.116 166.376 123.116C166.373 123.126 166.369 123.134 166.365 123.143C166.362 123.147 166.361 123.149 166.359 123.154C166.353 123.168 166.345 123.184 166.338 123.2C166.335 123.204 166.334 123.206 166.332 123.21C166.327 123.22 166.323 123.229 166.319 123.238L166.318 123.24C166.299 123.278 166.277 123.318 166.255 123.356C166.255 123.357 166.255 123.357 166.255 123.357C166.24 123.382 166.226 123.407 166.211 123.432C166.208 123.436 166.207 123.44 166.204 123.444C162.092 130.255 117.386 155.344 112.685 156.407Z" fill="#F79943"/>
<path d="M102.117 139.894C102.117 139.894 104.455 151.939 128.611 144.995C148.996 139.134 163.864 125.777 160.713 113.96C158.379 105.185 151.089 108.044 142.348 111.231C139.311 112.34 136.099 113.486 132.858 114.199C112.936 118.576 100.093 132.766 102.117 139.894Z" fill="#EF4742"/>
<path d="M155.919 108.371C156.021 108.663 156.137 108.913 156.225 109.226C159.372 121.046 144.424 134.123 124.113 140.261C112.848 143.664 105.995 142.022 102.117 139.885V139.894C102.117 139.894 104.455 151.939 128.611 144.994C148.996 139.134 163.864 125.777 160.713 113.96C159.803 110.545 158.123 108.925 155.919 108.371Z" fill="#C53438"/>
<path d="M53.5484 111.169C53.5484 111.169 47.4188 119.782 65.9256 131.603C81.5528 141.581 98.6028 143.524 104.106 134.519C109.616 125.502 96.6924 122.972 87.5916 116.319C73.164 105.782 56.7916 105.655 53.5484 111.169Z" fill="#EF4742"/>
<path d="M104.769 128.075C104.652 128.316 104.563 128.534 104.413 128.777C98.9068 137.791 81.9848 135.636 66.2336 125.869C57.498 120.457 54.4984 114.978 53.55 111.172L53.5484 111.168C53.5484 111.168 47.4188 119.782 65.9256 131.602C81.5528 141.58 98.6028 143.524 104.106 134.518C105.695 131.906 105.719 129.857 104.769 128.075Z" fill="#C53438"/>
<path d="M41.8879 90.6092C40.8375 91.3456 39.7259 91.336 38.7967 91.2864C37.3023 91.2052 36.2835 91.0156 36.7579 93.654C37.5283 97.9332 38.2587 99.9256 37.8063 101.778C37.3527 103.621 37.1923 110.079 41.9919 111.793C43.9019 112.476 45.1571 112.175 46.2515 111.912C47.9059 111.513 49.1923 111.197 51.8199 114.488C56.1859 119.96 58.1351 123.238 61.2519 123.994C64.3647 124.746 67.7151 125.144 68.6687 124.88C69.6259 124.612 75.8687 127.26 77.0731 128.548C78.2911 129.836 79.0259 131.444 81.6631 132.521C84.3043 133.596 84.0791 134.712 88.3867 135.228C92.6967 135.737 97.9703 137.134 100.106 136.247C102.248 135.356 106.784 135.138 112.538 136.586C118.292 138.035 118.329 141.089 122.132 139.634C123.574 139.084 126.19 139.003 128.997 138.878C133.593 138.676 138.703 138.356 140.004 135.672C142.104 131.353 143.032 128.801 146.377 128.818C149.72 128.836 148.789 131.012 153.781 128.94C158.777 126.872 161.364 123.752 162.307 122.723C162.767 122.223 163.573 122.482 164.441 122.726C165.365 122.984 166.359 123.228 167.087 122.53C168.503 121.177 168.712 118.536 168.437 115.456C168.163 112.376 165.899 102.432 161.799 99.8136C157.695 97.1904 137.693 73.9996 106.817 70.3148C75.9555 66.6348 64.9783 74.4088 41.8879 90.6092Z" fill="#11B255"/>
<path fill-rule="evenodd" clip-rule="evenodd" d="M41.0606 111.37C40.9418 111.302 40.8254 111.232 40.7146 111.157C40.8254 111.232 40.9418 111.302 41.0618 111.37H41.0606Z" fill="url(#paint0_radial_122_633)"/>
<path d="M45.6 112.065C44.6508 112.256 43.534 112.344 41.992 111.792C41.6572 111.673 41.348 111.532 41.0608 111.37H41.062C41.3492 111.531 41.6572 111.673 41.992 111.792C43.5312 112.342 44.6448 112.254 45.5924 112.062C45.5936 112.062 45.5976 112.064 45.6 112.065Z" fill="#AB963B"/>
<path d="M45.5923 112.062C44.6447 112.254 43.5311 112.342 41.9919 111.793C41.6571 111.674 41.3491 111.532 41.0619 111.37C40.9419 111.303 40.8255 111.232 40.7147 111.158C39.9247 110.634 39.3259 109.949 38.8723 109.186C40.8375 110.026 43.1003 110.995 45.5923 112.062Z" fill="#00A256"/>
<path d="M135.85 138.18C133.813 138.641 131.338 138.775 128.997 138.878C126.654 138.982 124.447 139.056 122.942 139.396C122.643 139.464 122.371 139.543 122.132 139.634C121.809 139.758 121.512 139.849 121.236 139.911C118.828 140.456 118.064 138.782 115.01 137.427C115.371 137.23 115.748 137.025 116.143 136.813C117.032 137.346 117.832 137.642 119.056 137.364C119.331 137.302 119.628 137.21 119.951 137.087C120.189 136.997 120.46 136.918 120.758 136.85C122.265 136.509 124.474 136.436 126.818 136.332C129.162 136.23 131.638 136.096 133.674 135.634C135.633 135.191 137.186 134.445 137.824 133.13C139.652 129.366 140.59 126.942 143.016 126.393C143.375 126.312 143.767 126.272 144.198 126.274C146.917 126.286 146.809 127.73 149.363 127.152C149.948 127.019 150.674 126.781 151.604 126.394C156.596 124.324 159.187 121.209 160.132 120.179C160.258 120.04 160.411 119.96 160.584 119.92C161.038 119.818 161.634 120.003 162.264 120.18C162.894 120.357 163.557 120.527 164.147 120.393C164.419 120.332 164.676 120.205 164.906 119.985C165.774 119.158 166.189 117.851 166.318 116.257C167.045 116.11 167.764 115.98 168.471 115.865C168.692 118.769 168.44 121.236 167.087 122.53C166.857 122.75 166.601 122.877 166.328 122.939C165.738 123.073 165.073 122.903 164.442 122.726C163.811 122.548 163.214 122.363 162.757 122.466C162.585 122.505 162.433 122.586 162.307 122.723C161.364 123.752 158.777 126.872 153.781 128.94C152.849 129.328 152.123 129.566 151.538 129.698C148.988 130.276 149.097 128.833 146.377 128.818C145.946 128.816 145.558 128.856 145.2 128.937C142.774 129.486 141.835 131.908 140.004 135.672C139.366 136.988 137.81 137.736 135.85 138.18Z" fill="#00A256"/>
<path d="M61.1571 123.971C61.1547 123.97 61.1523 123.97 61.1487 123.969C61.1511 123.97 61.1547 123.97 61.1571 123.971ZM61.0839 123.951C61.0815 123.95 61.0795 123.95 61.0771 123.95C61.0795 123.95 61.0819 123.951 61.0839 123.951ZM61.0595 123.944C61.0587 123.945 61.0571 123.944 61.0547 123.943C61.0563 123.944 61.0587 123.945 61.0595 123.944ZM61.0095 123.931C61.0083 123.93 61.0071 123.93 61.0059 123.929C61.0067 123.929 61.0083 123.93 61.0095 123.931Z" fill="#812E2F"/>
<path d="M99.6076 136.401C97.2296 136.939 92.3916 135.701 88.3868 135.227C84.0792 134.711 84.3044 133.596 81.6632 132.52C79.026 131.444 78.2912 129.836 77.0732 128.548C75.8764 127.268 69.704 124.645 68.6876 124.875C68.6812 124.877 68.6744 124.878 68.6688 124.879C68.6496 124.885 68.6292 124.891 68.6084 124.896C67.9248 125.05 66.248 124.926 64.304 124.61C63.3236 124.45 62.2748 124.241 61.252 123.994C61.2448 123.993 61.2376 123.992 61.23 123.99C61.2276 123.989 61.2252 123.988 61.2228 123.988C61.218 123.986 61.212 123.985 61.2072 123.984C61.2048 123.984 61.2024 123.983 61.2 123.983C61.1928 123.98 61.1852 123.978 61.1792 123.976C61.178 123.977 61.1768 123.976 61.1756 123.976C61.1696 123.974 61.1636 123.973 61.1572 123.971C61.1548 123.97 61.1512 123.97 61.1488 123.969C61.144 123.968 61.1388 123.967 61.134 123.964C61.1316 123.965 61.1292 123.964 61.1268 123.964C61.1196 123.961 61.1124 123.96 61.106 123.958C61.1048 123.957 61.1036 123.957 61.1024 123.956C61.0964 123.955 61.09 123.953 61.084 123.951C61.082 123.951 61.0796 123.95 61.0772 123.95C61.0716 123.948 61.066 123.947 61.0596 123.945C61.0588 123.945 61.0564 123.944 61.0548 123.943C61.0476 123.941 61.0404 123.939 61.0328 123.936C61.0316 123.936 61.0316 123.936 61.0316 123.936C61.0244 123.935 61.0172 123.933 61.0096 123.931C61.0084 123.93 61.0068 123.929 61.006 123.929C60.9988 123.928 60.9916 123.926 60.9836 123.922C59.0172 123.341 57.4904 121.714 55.4456 119.13C56.626 120.342 57.7428 121.129 59.0696 121.447C62.1196 122.184 65.3976 122.58 66.428 122.347C66.4508 122.342 66.4716 122.336 66.492 122.33C66.4976 122.329 66.5044 122.328 66.5108 122.326C67.5216 122.097 73.6932 124.723 74.8968 126.002C76.1104 127.284 76.8416 128.899 79.4868 129.98C82.1256 131.052 81.8988 132.168 86.2056 132.683C89.6132 133.088 93.6224 134.043 96.2096 133.986C97.7884 134.682 99.3219 135.36 100.785 136.01C100.538 136.083 100.311 136.161 100.106 136.247C99.9552 136.309 99.7892 136.36 99.6076 136.401ZM165.873 105.692C165.666 105.552 165.455 105.41 165.242 105.268C165.373 105.216 165.498 105.16 165.619 105.1C165.706 105.296 165.79 105.494 165.873 105.692Z" fill="#00A256"/>
<path d="M43.3799 98.0087L30.9475 103.494L30.8347 105.754C30.8347 105.754 88.6643 130.385 110.076 140.189C110.076 140.189 153.984 114.591 175.973 115.286L176.1 112.828C166.69 107.803 132.229 85.3363 110.926 78.6035C85.1623 70.4631 56.2491 90.9699 43.3799 98.0087Z" fill="#FCB838"/>
<path d="M110.075 140.188L110.197 137.812C110.197 137.812 141.752 119.381 164.76 114.172C168.893 113.236 172.749 112.727 176.099 112.828L175.973 115.286C173.684 115.214 171.161 115.426 168.471 115.864C167.764 115.98 167.045 116.11 166.317 116.256C165.733 116.373 165.142 116.5 164.545 116.635C147.739 120.44 126.41 131.26 116.143 136.812C115.748 137.024 115.371 137.23 115.01 137.427C111.909 139.12 110.075 140.188 110.075 140.188Z" fill="#FAAA3A"/>
<path d="M43.4931 95.7304L30.9475 103.494C30.9475 103.494 88.7811 128.043 110.197 137.812C110.197 137.812 154.106 112.165 176.1 112.828C176.1 112.828 137.625 84.5924 111.045 76.2308C85.2803 68.1308 56.3635 88.6752 43.4931 95.7304Z" fill="#FFDE4A"/>
<path d="M48.9543 87.8491C48.9543 87.8491 46.2563 92.6111 45.3211 97.6199C44.3771 102.669 53.6187 111.989 69.7279 118.844C88.0251 126.629 121.345 126.783 139.089 121.561C165.835 113.697 163.817 104.883 164.113 95.7975C164.403 86.8719 161.169 80.8995 156.003 79.8343C150.979 78.8107 60.5683 73.2799 48.9543 87.8491Z" fill="#8D4C32"/>
<path d="M64.2664 116.3C59.4584 113.855 55.4784 111.248 52.4436 108.727C52.4492 108.731 52.498 108.761 52.5868 108.815C55.6316 111.331 59.5616 113.904 64.2664 116.3Z" fill="#E2AD3D"/>
<path d="M135.209 122.563C130.379 123.656 124.743 124.418 118.75 124.817C121.164 123.473 124.677 121.492 128.697 119.212C130.626 118.963 132.502 118.649 134.319 118.252C135.889 117.91 137.381 117.582 138.793 117.263C150.039 114.716 156.21 112.687 155.961 108.157C155.894 106.986 155.431 106.148 154.647 105.6C154.923 105.406 155.185 105.241 155.431 105.1C155.427 105.103 155.425 105.106 155.421 105.108C155.975 104.793 156.456 104.602 156.889 104.504C159.059 104.013 160.038 105.833 163.177 105.684C161.407 111.241 155.992 116.591 139.089 121.561C137.865 121.92 136.571 122.255 135.209 122.563ZM109.333 125.138C95.0074 125.179 79.999 123.213 69.7278 118.844C67.8046 118.024 65.9826 117.172 64.2662 116.3C59.5614 113.904 55.6314 111.331 52.5866 108.815C54.4546 109.968 74.1158 121.903 88.3674 120.851C92.4502 120.552 96.5306 120.419 100.561 120.344C104.023 122.277 106.312 123.556 106.815 123.839C107.687 124.333 108.55 124.769 109.333 125.138ZM91.681 115.385C90.1682 115.179 88.6486 114.925 87.1218 114.618C87.1306 114.615 87.1394 114.613 87.1478 114.61C87.711 114.413 88.3482 114.199 89.1282 114.023C89.1546 114.017 89.181 114.011 89.2082 114.004C90.0506 114.475 90.8762 114.936 91.681 115.385ZM65.2014 107.343C57.1402 103.94 52.569 101.006 50.6682 98.1533C51.2854 98.5965 51.9614 99.0389 52.7026 99.4701C57.3402 102.167 56.721 100.138 60.0102 100.745C63.1814 101.333 63.8278 103.534 65.2014 107.343Z" fill="#773E2F"/>
<path d="M166.474 87.8151C168.868 89.9359 172.282 87.8707 171.022 91.3203C169.758 94.7827 168.81 96.3183 169.02 97.9631C169.226 99.6015 168.584 105.069 163.762 105.635C158.929 106.199 158.851 102.288 153.967 106.104C149.071 109.922 146.774 112.337 143.668 112.404C140.561 112.469 137.27 112.195 136.386 111.793C135.489 111.388 129.11 112.487 127.766 113.355C126.421 114.227 125.503 115.457 122.801 115.887C121.888 116.031 121.292 116.241 120.74 116.441C119.657 116.832 118.739 117.187 115.924 116.949C111.658 116.595 106.335 116.807 104.365 115.661C102.395 114.505 97.9936 113.483 92.1752 113.651C89.7904 113.725 88.308 114.203 87.148 114.61C85.476 115.195 84.4684 115.629 82.386 114.483C78.8436 112.54 66.8404 111.865 65.3632 107.786C63.8736 103.705 63.3036 101.355 60.0104 100.745C56.7212 100.137 57.3404 102.167 52.7028 99.4699C48.058 96.7659 45.9328 93.6159 45.1436 92.5623C44.3428 91.5015 41.662 92.9227 40.4488 91.4991C39.2364 90.0759 39.39 87.7827 40.084 85.2055C40.776 82.6311 44.368 74.5899 48.758 73.1387C53.1544 71.6895 75.8644 55.8423 106.398 58.5923C136.714 61.3191 146.306 69.9079 166.474 87.8151Z" fill="#11B255"/>
<path d="M164.41 105.525C164.203 105.572 163.987 105.609 163.761 105.635C163.988 105.609 164.204 105.572 164.411 105.525C164.533 105.497 164.653 105.465 164.77 105.432C164.652 105.466 164.532 105.497 164.41 105.525Z" fill="#9DC148"/>
<path d="M163.177 105.684C160.038 105.833 159.059 104.013 156.889 104.504C156.456 104.602 155.975 104.792 155.421 105.108C155.425 105.106 155.427 105.103 155.431 105.1C155.985 104.784 156.466 104.594 156.898 104.496C159.064 104.006 160.036 105.832 163.177 105.684Z" fill="#51372C"/>
<path d="M164.411 105.525C164.204 105.572 163.988 105.609 163.761 105.636C163.559 105.659 163.364 105.674 163.177 105.684C160.036 105.832 159.064 104.006 156.898 104.496C156.466 104.594 155.985 104.784 155.431 105.1C155.743 104.861 156.054 104.612 156.383 104.352C157.611 103.394 158.535 102.924 159.307 102.749C161.607 102.228 162.562 104.313 166.172 103.89C166.365 103.867 166.549 103.834 166.727 103.793C166.977 103.736 167.216 103.666 167.443 103.586C166.81 104.398 165.949 105.078 164.784 105.428C164.782 105.428 164.779 105.428 164.777 105.429C164.775 105.43 164.772 105.43 164.77 105.432C164.653 105.466 164.533 105.497 164.411 105.525Z" fill="#00A256"/>
<path d="M144.857 112.258C144.565 112.324 144.271 112.368 143.971 112.39C143.871 112.398 143.77 112.403 143.668 112.404C142.672 112.425 141.657 112.411 140.709 112.369C141.723 111.789 142.73 111.212 143.733 110.638C144.504 110.662 145.307 110.669 146.097 110.652C146.501 110.644 146.893 110.594 147.279 110.507C148.149 110.31 148.99 109.918 149.886 109.355C147.954 110.878 146.457 111.896 144.857 112.258ZM85.6194 115.094C84.6766 115.308 83.7682 115.244 82.3858 114.483C78.8434 112.54 66.8402 111.865 65.363 107.786C63.8734 103.705 63.3034 101.355 60.0102 100.745C56.721 100.138 57.3402 102.167 52.7026 99.47C48.0578 96.766 45.9326 93.616 45.1434 92.5624C44.3426 91.5016 41.6618 92.9228 40.4486 91.4992C40.0558 91.0376 39.8058 90.4844 39.6722 89.86C39.4514 88.8324 39.5438 87.6096 39.8238 86.2832C40.4822 86.6612 41.2422 87.094 42.0894 87.576C42.1826 88.416 42.4498 89.1488 42.9506 89.7348C44.1614 91.1552 46.843 89.742 47.6354 90.8012C48.4246 91.8548 50.5558 95.0004 55.191 97.7036C59.7218 100.337 59.2358 98.4612 62.2778 98.9424C63.3618 99.5512 64.4658 100.169 65.5722 100.788C66.4702 101.986 67.013 103.73 67.8466 106.018C69.3286 110.097 81.3158 110.774 84.8558 112.715C86.2038 113.455 87.1018 113.536 88.0214 113.342C88.4194 113.565 88.817 113.786 89.2082 114.004C89.181 114.01 89.1546 114.016 89.1282 114.022C88.3482 114.199 87.711 114.413 87.1478 114.61C87.1394 114.613 87.1306 114.615 87.1218 114.618C86.5694 114.812 86.0906 114.988 85.6194 115.094Z" fill="#00A256"/>
<path d="M113.291 113.704L112.65 126.539C112.65 126.539 113.711 127.376 115.395 126.643C117.077 125.908 161.813 100.447 163.902 98.7967C165.988 97.1451 167.763 94.5399 167.975 92.6707C168.191 90.8043 170.647 81.0183 168.573 80.3831C166.503 79.7467 113.342 112.668 113.291 113.704Z" fill="#FCBA65"/>
<path d="M114.724 126.865C113.434 127.157 112.65 126.539 112.65 126.539L112.764 124.245C112.764 124.245 125.37 118.794 133.54 113.797C141.713 108.792 148.271 103.023 153.728 99.5785C159.179 96.1309 164.357 89.9653 156.973 90.0737C162.934 86.0937 167.4 82.6421 168.413 80.7517C168.423 80.7337 168.432 80.7165 168.442 80.6989C168.448 80.6857 168.455 80.6725 168.462 80.6593C168.468 80.6449 168.475 80.6313 168.481 80.6169C168.491 80.5973 168.498 80.5785 168.507 80.5601C168.533 80.4989 168.556 80.4393 168.573 80.3833C168.933 80.4933 169.158 80.8809 169.28 81.4549C169.86 84.1817 168.154 91.1285 167.975 92.6709C167.763 94.5401 165.988 97.1453 163.902 98.7969C162.985 99.5221 153.84 104.84 143.733 110.638C142.73 111.212 141.724 111.789 140.71 112.369C136.588 114.727 132.424 117.099 128.698 119.212C124.677 121.492 121.164 123.472 118.75 124.817C116.86 125.87 115.646 126.533 115.395 126.643C115.158 126.745 114.935 126.817 114.724 126.865Z" fill="#F9A756"/>
<path d="M113.291 113.704L112.65 126.539C112.65 126.539 109.793 125.522 106.815 123.839C103.832 122.153 37.9326 85.4412 36.9162 84.566C35.901 83.69 34.6678 82.45 34.9578 81.2932C35.251 80.1352 35.8382 73.3636 35.8382 73.3636C35.8382 73.3636 37.3402 71.3916 40.1882 73.304C43.0374 75.216 113.418 111.148 113.291 113.704Z" fill="#FDC880"/>
<path d="M96.6999 106.536C96.6999 106.536 36.4975 75.7385 35.8383 73.3637C35.6363 72.6401 62.7303 56.0641 93.4271 53.9417C124.118 51.8205 170.488 74.3333 168.573 80.3833C166.661 86.4325 117.8 113.8 114.577 113.899C111.354 113.997 96.6999 106.536 96.6999 106.536Z" fill="#FAAB4A"/>
<path d="M114.808 113.864C114.719 113.884 114.643 113.897 114.584 113.898C114.582 113.899 114.579 113.899 114.577 113.898C114.254 113.909 113.816 113.843 113.291 113.716C108.564 112.576 96.6998 106.536 96.6998 106.536C96.6622 106.516 93.509 104.901 88.687 102.41C88.687 102.41 101.331 108.322 114.245 105.398C115.857 105.034 117.475 104.53 119.071 103.862C133.456 97.8267 150.995 81.5443 147.777 75.4855C144.594 69.4955 110.834 54.8207 105.021 54.1783C129.659 56.5227 158.62 69.4999 166.54 76.8235C166.541 76.8243 166.541 76.8243 166.541 76.8243C166.548 76.8307 166.556 76.8375 166.562 76.8431C166.567 76.8491 166.571 76.8519 166.576 76.8567C166.58 76.8607 166.584 76.8643 166.589 76.8679C168.034 78.2163 168.762 79.3699 168.611 80.2279C168.611 80.2295 168.611 80.2303 168.611 80.2303C168.61 80.2351 168.609 80.2403 168.608 80.2455C168.609 80.2463 168.608 80.2479 168.607 80.2491C168.607 80.2539 168.606 80.2575 168.605 80.2611C168.604 80.2639 168.604 80.2651 168.604 80.2675C168.603 80.2699 168.603 80.2723 168.602 80.2739C168.601 80.2775 168.601 80.2811 168.599 80.2851C168.6 80.2863 168.599 80.2887 168.599 80.2911C168.598 80.2947 168.597 80.2987 168.596 80.3023C168.595 80.3035 168.595 80.3051 168.595 80.3071C168.593 80.3099 168.593 80.3139 168.593 80.3163C168.592 80.3187 168.591 80.3199 168.591 80.3223C168.59 80.3263 168.589 80.3303 168.588 80.3335C168.587 80.3339 168.588 80.3359 168.587 80.3375C168.587 80.3411 168.585 80.3451 168.583 80.3499C168.583 80.3511 168.583 80.3527 168.582 80.3527C168.582 80.3575 168.579 80.3619 168.579 80.3663C168.578 80.3667 168.578 80.3679 168.578 80.3691C168.576 80.3727 168.575 80.3783 168.573 80.3831C168.556 80.4391 168.533 80.4987 168.507 80.5599C168.498 80.5783 168.491 80.5971 168.481 80.6167C168.475 80.6311 168.467 80.6447 168.461 80.6591C168.455 80.6723 168.447 80.6855 168.441 80.6987C168.432 80.7163 168.423 80.7335 168.413 80.7515C164.887 87.3351 119.534 112.795 114.808 113.864ZM105.021 54.1783C104.976 54.1747 104.93 54.1695 104.885 54.1655C104.929 54.1687 104.975 54.1739 105.021 54.1783Z" fill="#F79943"/>
<path d="M125.424 95.9223C126.68 96.8207 128.008 95.0015 127.133 94.1199C126.26 93.2387 125.6 92.5799 125.176 93.2535C124.749 93.9279 123.89 94.8231 125.424 95.9223Z" fill="#BC6C38"/>
<path d="M116.279 80.9576C116.888 79.5044 114.885 78.5376 114.22 79.5944C113.558 80.652 113.063 81.448 113.784 81.7408C114.517 82.0368 115.546 82.7152 116.279 80.9576Z" fill="#BC6C38"/>
<path d="M111.772 91.0672C113.239 90.626 112.696 88.4192 111.479 88.5656C110.269 88.7132 109.352 88.8204 109.594 89.5824C109.837 90.3508 109.986 91.6016 111.772 91.0672Z" fill="#BC6C38"/>
<path d="M95.4931 78.9366C96.6463 79.9738 98.1619 78.319 97.3895 77.3386C96.6135 76.3734 96.0327 75.633 95.5419 76.2534C95.0407 76.8738 94.0919 77.675 95.4931 78.9366Z" fill="#BC6C38"/>
<path d="M81.0819 85.0547C79.8955 86.0535 81.2299 87.8679 82.2963 87.2483C83.3535 86.6247 84.1547 86.1539 83.6435 85.5523C83.1319 84.9427 82.5247 83.8523 81.0819 85.0547Z" fill="#BC6C38"/>
<path d="M108.125 98.6659C106.939 99.6635 108.272 101.477 109.34 100.856C110.396 100.233 111.2 99.7627 110.691 99.1687C110.173 98.5535 109.567 97.4591 108.125 98.6659Z" fill="#BC6C38"/>
<path d="M137.248 82.9602C136.061 83.959 137.398 85.7742 138.458 85.1526C139.52 84.5266 140.322 84.0558 139.812 83.4598C139.297 82.8482 138.694 81.7538 137.248 82.9602Z" fill="#BC6C38"/>
<path d="M130.813 81.529C130.52 80.7134 129.364 81.1042 129.484 81.7862C129.613 82.4626 129.71 82.9814 130.102 82.815C130.501 82.6454 131.163 82.5242 130.813 81.529Z" fill="#BC6C38"/>
<path d="M124.809 73.4372C124.515 72.6244 123.358 73.0176 123.483 73.6984C123.609 74.374 123.702 74.8976 124.101 74.7272C124.499 74.5624 125.158 74.43 124.809 73.4372Z" fill="#BC6C38"/>
<path d="M121.542 87.403C121.25 86.5842 120.091 86.9778 120.211 87.661C120.342 88.3402 120.433 88.8526 120.83 88.687C121.234 88.5198 121.891 88.3914 121.542 87.403Z" fill="#BC6C38"/>
<path d="M105.668 82.7916C105.376 81.9736 104.216 82.364 104.341 83.0492C104.472 83.7252 104.564 84.2428 104.96 84.0752C105.361 83.908 106.021 83.782 105.668 82.7916Z" fill="#BC6C38"/>
<path d="M95.3402 96.3474C95.0454 95.5278 93.8882 95.9222 94.0102 96.595C94.1414 97.2826 94.2314 97.795 94.6278 97.631C95.029 97.4646 95.6898 97.3338 95.3402 96.3474Z" fill="#BC6C38"/>
<path d="M119.116 100.652C118.827 99.8335 117.669 100.229 117.789 100.909C117.918 101.585 118.009 102.102 118.405 101.938C118.808 101.773 119.468 101.643 119.116 100.652Z" fill="#BC6C38"/>
<path d="M109.36 72.5427C109.068 71.7275 107.906 72.1207 108.033 72.7995C108.161 73.4783 108.255 73.9947 108.65 73.8287C109.052 73.6643 109.714 73.5343 109.36 72.5427Z" fill="#BC6C38"/>
<path d="M100.25 88.3383C99.9587 87.5227 98.8015 87.9159 98.9215 88.5967C99.0535 89.2723 99.1427 89.7863 99.5403 89.6267C99.9435 89.4607 100.602 89.3291 100.25 88.3383Z" fill="#BC6C38"/>
<path d="M90.2439 78.2827C89.9491 77.4619 88.7931 77.8522 88.9167 78.5358C89.0491 79.2146 89.1371 79.729 89.5347 79.563C89.9367 79.3978 90.5951 79.2703 90.2439 78.2827Z" fill="#BC6C38"/>
<path d="M86.6744 95.0212C86.3824 94.2048 85.222 94.5928 85.3476 95.2768C85.4748 95.9536 85.5708 96.4696 85.9656 96.3032C86.3664 96.1372 87.026 96.0088 86.6744 95.0212Z" fill="#BC6C38"/>
<path d="M76.9 78.7841C76.6052 77.9741 75.4504 78.3645 75.5708 79.0457C75.6996 79.7221 75.7932 80.2353 76.1896 80.0709C76.5892 79.9073 77.2504 79.7789 76.9 78.7841Z" fill="#BC6C38"/>
<defs>
<radialGradient id="paint0_radial_122_633" cx="0" cy="0" r="1" gradientUnits="userSpaceOnUse" gradientTransform="translate(-133.807 160.196) rotate(-12.7564) scale(421.165 288.669)">
<stop stop-color="#2F3C32"/>
<stop offset="1" stop-color="#2A2E2C"/>
</radialGradient>
</defs>
</svg>
